<svg xmlns="http://www.w3.org/2000/svg" width="1100" height="974" viewBox="0 0 1100 974">
<rect width="100%" height="100%" fill="#0f1419"/>
<text x="24" y="28" fill="#f4f7fb" font-family="Segoe UI, Arial" font-size="18">Sine measured output vs stateful intended output</text>
<text x="16" y="110.0" fill="#d6dde6" font-family="Segoe UI, Arial" font-size="13">Roll</text>
<line x1="70" y1="105.0" x2="1076" y2="105.0" stroke="#33414d" stroke-width="1"/>
<line x1="70" y1="44" x2="70" y2="166" stroke="#33414d" stroke-width="1"/>
<polyline points="70.0,105.0 75.6,104.5 81.2,103.5 86.8,102.3 92.4,101.1 98.0,99.8 103.6,98.3 109.2,96.7 114.8,94.9 120.4,93.1 126.0,91.0 131.6,88.9 137.2,86.7 142.8,84.4 148.4,82.2 154.0,79.9 159.6,77.8 165.2,75.9 170.8,74.1 176.4,72.7 182.0,71.5 187.6,70.8 193.2,70.4 198.7,70.5 204.3,70.9 209.9,71.8 215.5,73.0 221.1,74.5 226.7,76.3 232.3,78.3 237.9,80.5 243.5,82.7 249.1,85.0 254.7,87.3 260.3,89.5 265.9,91.6 271.5,93.5 277.1,95.4 282.7,97.1 288.3,98.7 293.9,100.1 299.5,101.4 305.1,102.6 310.7,103.7 316.3,104.7 321.9,105.0 327.5,105.8 333.1,106.8 338.7,108.0 344.3,109.2 349.9,110.6 355.5,112.1 361.1,113.7 366.7,115.5 372.3,117.4 377.9,119.5 383.5,121.6 389.1,123.9 394.7,126.1 400.3,128.4 405.9,130.6 411.5,132.7 417.1,134.6 422.7,136.3 428.3,137.7 433.9,138.7 439.5,139.4 445.1,139.6 450.6,139.5 456.2,138.9 461.8,138.0 467.4,136.7 473.0,135.0 478.6,133.2 484.2,131.1 489.8,129.0 495.4,126.7 501.0,124.4 506.6,122.2 512.2,120.0 517.8,117.9 523.4,116.0 529.0,114.2 534.6,112.5 540.2,111.0 545.8,109.5 551.4,108.3 557.0,107.1 562.6,106.0 568.2,105.0 573.8,105.0 579.4,104.0 585.0,102.9 590.6,101.7 596.2,100.5 601.8,99.0 607.4,97.5 613.0,95.8 618.6,94.0 624.2,92.1 629.8,90.0 635.4,87.8 641.0,85.6 646.6,83.3 652.2,81.0 657.8,78.9 663.4,76.8 669.0,75.0 674.6,73.3 680.2,72.0 685.8,71.1 691.4,70.5 696.9,70.4 702.5,70.6 708.1,71.3 713.7,72.3 719.3,73.7 724.9,75.4 730.5,77.3 736.1,79.4 741.7,81.6 747.3,83.9 752.9,86.1 758.5,88.4 764.1,90.5 769.7,92.6 775.3,94.5 780.9,96.3 786.5,97.9 792.1,99.4 797.7,100.8 803.3,102.0 808.9,103.2 814.5,104.2 820.1,105.0 825.7,105.3 831.3,106.3 836.9,107.4 842.5,108.6 848.1,109.9 853.7,111.3 859.3,112.9 864.9,114.6 870.5,116.5 876.1,118.4 881.7,120.5 887.3,122.7 892.9,125.0 898.5,127.3 904.1,129.5 909.7,131.7 915.3,133.7 920.9,135.5 926.5,137.0 932.1,138.2 937.7,139.1 943.3,139.5 948.8,139.6 954.4,139.2 960.0,138.5 965.6,137.3 971.2,135.9 976.8,134.1 982.4,132.2 988.0,130.1 993.6,127.8 999.2,125.6 1004.8,123.3 1010.4,121.1 1016.0,119.0 1021.6,116.9 1027.2,115.1 1032.8,113.3 1038.4,111.7 1044.0,110.2 1049.6,108.9 1055.2,107.7 1060.8,106.5 1066.4,105.5 1072.0,105.0" fill="none" stroke="#38bdf8" stroke-width="2" opacity="0.92"/>
<polyline points="70.0,105.0 75.6,104.5 81.2,103.1 86.8,101.2 92.4,98.9 98.0,96.2 103.6,93.4 109.2,90.3 114.8,87.2 120.4,84.0 126.0,80.7 131.6,77.4 137.2,74.1 142.8,70.9 148.4,67.7 154.0,64.8 159.6,62.0 165.2,59.5 170.8,57.3 176.4,55.5 182.0,54.0 187.6,53.0 193.2,52.4 198.7,52.2 204.3,52.5 209.9,53.1 215.5,54.2 221.1,55.6 226.7,57.4 232.3,59.5 237.9,61.8 243.5,64.3 249.1,66.9 254.7,69.7 260.3,72.6 265.9,75.4 271.5,78.3 277.1,81.2 282.7,84.0 288.3,86.8 293.9,89.5 299.5,92.2 305.1,94.7 310.7,97.3 316.3,99.7 321.9,101.6 327.5,103.6 333.1,105.9 338.7,108.5 344.3,111.3 349.9,114.2 355.5,117.2 361.1,120.3 366.7,123.6 372.3,126.8 377.9,130.1 383.5,133.4 389.1,136.7 394.7,139.9 400.3,143.0 405.9,146.0 411.5,148.7 417.1,151.1 422.7,153.2 428.3,154.9 433.9,156.3 439.5,157.2 445.1,157.7 450.6,157.8 456.2,157.4 461.8,156.6 467.4,155.5 473.0,153.9 478.6,152.1 484.2,150.0 489.8,147.6 495.4,145.1 501.0,142.4 506.6,139.6 512.2,136.7 517.8,133.8 523.4,131.0 529.0,128.1 534.6,125.3 540.2,122.5 545.8,119.8 551.4,117.2 557.0,114.6 562.6,112.1 568.2,109.7 573.8,108.0 579.4,105.9 585.0,103.5 590.6,100.8 596.2,98.0 601.8,95.1 607.4,92.0 613.0,88.9 618.6,85.6 624.2,82.4 629.8,79.0 635.4,75.7 641.0,72.5 646.6,69.3 652.2,66.2 657.8,63.3 663.4,60.7 669.0,58.4 674.6,56.4 680.2,54.7 685.8,53.5 691.4,52.6 696.9,52.3 702.5,52.3 708.1,52.8 713.7,53.6 719.3,54.9 724.9,56.5 730.5,58.4 736.1,60.6 741.7,63.0 747.3,65.6 752.9,68.3 758.5,71.1 764.1,74.0 769.7,76.9 775.3,79.8 780.9,82.6 786.5,85.4 792.1,88.2 797.7,90.8 803.3,93.4 808.9,96.0 814.5,98.5 820.1,100.8 825.7,102.5 831.3,104.7 836.9,107.2 842.5,109.9 848.1,112.7 853.7,115.7 859.3,118.8 864.9,121.9 870.5,125.2 876.1,128.5 881.7,131.8 887.3,135.1 892.9,138.3 898.5,141.5 904.1,144.5 909.7,147.3 915.3,149.9 920.9,152.2 926.5,154.1 932.1,155.6 937.7,156.8 943.3,157.5 948.8,157.8 954.4,157.6 960.0,157.1 965.6,156.1 971.2,154.7 976.8,153.1 982.4,151.1 988.0,148.8 993.6,146.4 999.2,143.7 1004.8,141.0 1010.4,138.2 1016.0,135.3 1021.6,132.4 1027.2,129.5 1032.8,126.7 1038.4,123.9 1044.0,121.2 1049.6,118.5 1055.2,115.9 1060.8,113.4 1066.4,110.9 1072.0,108.8" fill="none" stroke="#f97316" stroke-width="2" opacity="0.92"/>
<text x="16" y="260.0" fill="#d6dde6" font-family="Segoe UI, Arial" font-size="13">Pitch</text>
<line x1="70" y1="255.0" x2="1076" y2="255.0" stroke="#33414d" stroke-width="1"/>
<line x1="70" y1="194" x2="70" y2="316" stroke="#33414d" stroke-width="1"/>
<polyline points="70.0,244.3 75.6,242.4 81.2,240.3 86.8,238.1 92.4,235.8 98.0,233.5 103.6,231.2 109.2,229.0 114.8,227.0 120.4,225.1 126.0,223.6 131.6,222.3 137.2,221.5 142.8,221.1 148.4,221.1 154.0,221.6 159.6,222.5 165.2,223.8 170.8,225.4 176.4,227.3 182.0,229.4 187.6,231.6 193.2,233.9 198.7,236.2 204.3,238.4 209.9,240.6 215.5,242.7 221.1,244.6 226.7,246.3 232.3,247.9 237.9,249.4 243.5,250.7 249.1,251.8 254.7,252.9 260.3,253.8 265.9,254.7 271.5,255.0 277.1,255.6 282.7,256.5 288.3,257.5 293.9,258.6 299.5,259.8 305.1,261.2 310.7,262.7 316.3,264.4 321.9,266.2 327.5,268.1 333.1,270.2 338.7,272.4 344.3,274.7 349.9,277.0 355.5,279.3 361.1,281.5 366.7,283.5 372.3,285.3 377.9,286.8 383.5,287.9 389.1,288.6 394.7,288.9 400.3,288.8 405.9,288.2 411.5,287.2 417.1,285.9 422.7,284.2 428.3,282.2 433.9,280.1 439.5,277.8 445.1,275.5 450.6,273.2 456.2,271.0 461.8,268.9 467.4,266.8 473.0,265.0 478.6,263.3 484.2,261.7 489.8,260.3 495.4,259.0 501.0,257.9 506.6,256.9 512.2,255.9 517.8,255.1 523.4,255.0 529.0,254.2 534.6,253.2 540.2,252.2 545.8,251.1 551.4,249.8 557.0,248.4 562.6,246.9 568.2,245.2 573.8,243.4 579.4,241.4 585.0,239.2 590.6,237.0 596.2,234.7 601.8,232.4 607.4,230.1 613.0,228.0 618.6,226.0 624.2,224.3 629.8,222.9 635.4,221.9 641.0,221.2 646.6,221.0 652.2,221.3 657.8,222.0 663.4,223.1 669.0,224.5 674.6,226.3 680.2,228.3 685.8,230.5 691.4,232.7 696.9,235.0 702.5,237.3 708.1,239.5 713.7,241.7 719.3,243.6 724.9,245.5 730.5,247.1 736.1,248.7 741.7,250.0 747.3,251.3 752.9,252.4 758.5,253.4 764.1,254.3 769.7,255.0 775.3,255.2 780.9,256.1 786.5,257.0 792.1,258.1 797.7,259.2 803.3,260.5 808.9,261.9 814.5,263.5 820.1,265.2 825.7,267.1 831.3,269.2 836.9,271.3 842.5,273.6 848.1,275.9 853.7,278.2 859.3,280.4 864.9,282.5 870.5,284.4 876.1,286.1 881.7,287.4 887.3,288.3 892.9,288.9 898.5,288.9 904.1,288.6 909.7,287.8 915.3,286.6 920.9,285.1 926.5,283.2 932.1,281.2 937.7,279.0 943.3,276.7 948.8,274.4 954.4,272.1 960.0,269.9 965.6,267.8 971.2,265.9 976.8,264.1 982.4,262.5 988.0,261.0 993.6,259.7 999.2,258.5 1004.8,257.4 1010.4,256.4 1016.0,255.5 1021.6,255.0 1027.2,254.6 1032.8,253.7 1038.4,252.7 1044.0,251.7 1049.6,250.5 1055.2,249.2 1060.8,247.7 1066.4,246.1 1072.0,244.3" fill="none" stroke="#38bdf8" stroke-width="2" opacity="0.92"/>
<polyline points="70.0,244.3 75.6,237.0 81.2,231.5 86.8,227.1 92.4,223.3 98.0,219.8 103.6,216.6 109.2,213.6 114.8,210.9 120.4,208.6 126.0,206.6 131.6,205.0 137.2,203.8 142.8,203.2 148.4,202.9 154.0,203.2 159.6,203.9 165.2,205.0 170.8,206.5 176.4,208.4 182.0,210.5 187.6,213.0 193.2,215.6 198.7,218.3 204.3,221.2 209.9,224.1 215.5,227.0 221.1,229.9 226.7,232.7 232.3,235.5 237.9,238.2 243.5,240.7 249.1,243.2 254.7,245.6 260.3,247.9 265.9,250.1 271.5,251.8 277.1,253.6 282.7,255.7 288.3,257.9 293.9,260.4 299.5,263.0 305.1,265.7 310.7,268.6 316.3,271.6 321.9,274.8 327.5,278.0 333.1,281.3 338.7,284.6 344.3,287.9 349.9,291.2 355.5,294.2 361.1,297.1 366.7,299.7 372.3,302.0 377.9,303.9 383.5,305.3 389.1,306.4 394.7,306.9 400.3,307.0 405.9,306.7 411.5,305.9 417.1,304.6 422.7,303.0 428.3,301.1 433.9,298.9 439.5,296.4 445.1,293.7 450.6,291.0 456.2,288.1 461.8,285.2 467.4,282.3 473.0,279.4 478.6,276.6 484.2,273.8 489.8,271.2 495.4,268.6 501.0,266.2 506.6,263.8 512.2,261.5 517.8,259.3 523.4,257.8 529.0,255.9 534.6,253.8 540.2,251.5 545.8,249.0 551.4,246.3 557.0,243.6 562.6,240.6 568.2,237.6 573.8,234.4 579.4,231.2 585.0,227.9 590.6,224.5 596.2,221.2 601.8,218.0 607.4,215.0 613.0,212.2 618.6,209.7 624.2,207.5 629.8,205.7 635.4,204.4 641.0,203.4 646.6,203.0 652.2,203.0 657.8,203.5 663.4,204.4 669.0,205.7 674.6,207.4 680.2,209.4 685.8,211.7 691.4,214.3 696.9,216.9 702.5,219.8 708.1,222.6 713.7,225.6 719.3,228.5 724.9,231.3 730.5,234.1 736.1,236.8 741.7,239.5 747.3,242.0 752.9,244.4 758.5,246.7 764.1,249.0 769.7,251.1 775.3,252.7 780.9,254.6 786.5,256.8 792.1,259.1 797.7,261.7 803.3,264.3 808.9,267.2 814.5,270.1 820.1,273.2 825.7,276.4 831.3,279.7 836.9,283.0 842.5,286.3 848.1,289.6 853.7,292.7 859.3,295.7 864.9,298.4 870.5,300.9 876.1,303.0 881.7,304.7 887.3,305.9 892.9,306.7 898.5,307.0 904.1,306.9 909.7,306.3 915.3,305.3 920.9,303.9 926.5,302.1 932.1,300.0 937.7,297.7 943.3,295.1 948.8,292.4 954.4,289.5 960.0,286.6 965.6,283.7 971.2,280.8 976.8,278.0 982.4,275.2 988.0,272.5 993.6,269.9 999.2,267.4 1004.8,265.0 1010.4,262.7 1016.0,260.4 1021.6,258.5 1027.2,256.9 1032.8,254.9 1038.4,252.6 1044.0,250.2 1049.6,247.7 1055.2,245.0 1060.8,242.1 1066.4,239.1 1072.0,236.0" fill="none" stroke="#f97316" stroke-width="2" opacity="0.92"/>
<text x="16" y="410.0" fill="#d6dde6" font-family="Segoe UI, Arial" font-size="13">Throttle</text>
<line x1="70" y1="405.0" x2="1076" y2="405.0" stroke="#33414d" stroke-width="1"/>
<line x1="70" y1="344" x2="70" y2="466" stroke="#33414d" stroke-width="1"/>
<polyline points="70.0,363.7 75.6,362.7 81.2,361.7 86.8,360.9 92.4,360.3 98.0,359.8 103.6,359.5 109.2,359.3 114.8,359.3 120.4,359.5 126.0,359.8 131.6,360.3 137.2,361.0 142.8,361.8 148.4,362.8 154.0,363.8 159.6,365.0 165.2,366.3 170.8,367.7 176.4,369.2 182.0,370.8 187.6,372.3 193.2,374.0 198.7,375.6 204.3,377.3 209.9,378.9 215.5,380.6 221.1,382.2 226.7,383.8 232.3,385.4 237.9,386.9 243.5,388.4 249.1,389.9 254.7,391.2 260.3,392.6 265.9,393.8 271.5,395.0 277.1,396.1 282.7,397.2 288.3,398.1 293.9,399.1 299.5,399.9 305.1,400.7 310.7,401.4 316.3,402.0 321.9,402.5 327.5,403.0 333.1,403.4 338.7,403.7 344.3,404.0 349.9,404.2 355.5,404.3 361.1,404.4 366.7,404.4 372.3,404.3 377.9,404.1 383.5,403.9 389.1,403.6 394.7,403.2 400.3,402.7 405.9,402.2 411.5,401.6 417.1,401.0 422.7,400.2 428.3,399.4 433.9,398.5 439.5,397.6 445.1,396.6 450.6,395.5 456.2,394.3 461.8,393.1 467.4,391.8 473.0,390.4 478.6,389.0 484.2,387.6 489.8,386.1 495.4,384.5 501.0,382.9 506.6,381.3 512.2,379.6 517.8,378.0 523.4,376.3 529.0,374.7 534.6,373.0 540.2,371.4 545.8,369.9 551.4,368.4 557.0,366.9 562.6,365.6 568.2,364.3 573.8,363.2 579.4,362.2 585.0,361.3 590.6,360.6 596.2,360.0 601.8,359.6 607.4,359.3 613.0,359.3 618.6,359.4 624.2,359.6 629.8,360.0 635.4,360.6 641.0,361.4 646.6,362.3 652.2,363.3 657.8,364.4 663.4,365.7 669.0,367.0 674.6,368.5 680.2,370.0 685.8,371.5 691.4,373.2 696.9,374.8 702.5,376.4 708.1,378.1 713.7,379.8 719.3,381.4 724.9,383.0 730.5,384.6 736.1,386.2 741.7,387.7 747.3,389.2 752.9,390.6 758.5,391.9 764.1,393.2 769.7,394.4 775.3,395.6 780.9,396.6 786.5,397.7 792.1,398.6 797.7,399.5 803.3,400.3 808.9,401.0 814.5,401.7 820.1,402.3 825.7,402.8 831.3,403.2 836.9,403.6 842.5,403.9 848.1,404.1 853.7,404.3 859.3,404.4 864.9,404.4 870.5,404.3 876.1,404.2 881.7,404.0 887.3,403.7 892.9,403.4 898.5,403.0 904.1,402.5 909.7,401.9 915.3,401.3 920.9,400.6 926.5,399.8 932.1,399.0 937.7,398.1 943.3,397.1 948.8,396.0 954.4,394.9 960.0,393.7 965.6,392.4 971.2,391.1 976.8,389.7 982.4,388.3 988.0,386.8 993.6,385.3 999.2,383.7 1004.8,382.1 1010.4,380.5 1016.0,378.8 1021.6,377.1 1027.2,375.5 1032.8,373.8 1038.4,372.2 1044.0,370.6 1049.6,369.1 1055.2,367.6 1060.8,366.2 1066.4,364.9 1072.0,363.7" fill="none" stroke="#38bdf8" stroke-width="2" opacity="0.92"/>
<polyline points="70.0,363.7 75.6,353.4 81.2,350.3 86.8,349.0 92.4,348.2 98.0,347.6 103.6,347.2 109.2,347.0 114.8,347.0 120.4,347.1 126.0,347.4 131.6,347.9 137.2,348.5 142.8,349.2 148.4,350.1 154.0,351.2 159.6,352.4 165.2,353.6 170.8,355.1 176.4,356.6 182.0,358.1 187.6,359.8 193.2,361.6 198.7,363.4 204.3,365.2 209.9,367.1 215.5,369.0 221.1,370.9 226.7,372.9 232.3,374.8 237.9,376.7 243.5,378.6 249.1,380.5 254.7,382.4 260.3,384.2 265.9,386.0 271.5,387.7 277.1,389.4 282.7,391.0 288.3,392.5 293.9,393.9 299.5,395.3 305.1,396.6 310.7,397.8 316.3,398.9 321.9,399.9 327.5,400.8 333.1,401.6 338.7,402.2 344.3,402.8 349.9,403.2 355.5,403.5 361.1,403.7 366.7,403.8 372.3,403.7 377.9,403.5 383.5,403.2 389.1,402.8 394.7,402.2 400.3,401.5 405.9,400.7 411.5,399.8 417.1,398.8 422.7,397.6 428.3,396.4 433.9,395.0 439.5,393.6 445.1,392.1 450.6,390.5 456.2,388.8 461.8,387.1 467.4,385.2 473.0,383.4 478.6,381.5 484.2,379.5 489.8,377.6 495.4,375.6 501.0,373.6 506.6,371.6 512.2,369.6 517.8,367.6 523.4,365.6 529.0,363.7 534.6,361.9 540.2,360.1 545.8,358.3 551.4,356.7 557.0,355.1 562.6,353.7 568.2,352.4 573.8,351.2 579.4,350.1 585.0,349.2 590.6,348.5 596.2,347.8 601.8,347.4 607.4,347.1 613.0,347.0 618.6,347.0 624.2,347.2 629.8,347.6 635.4,348.2 641.0,348.8 646.6,349.7 652.2,350.6 657.8,351.8 663.4,353.0 669.0,354.3 674.6,355.8 680.2,357.3 685.8,359.0 691.4,360.7 696.9,362.5 702.5,364.3 708.1,366.1 713.7,368.0 719.3,370.0 724.9,371.9 730.5,373.8 736.1,375.8 741.7,377.7 747.3,379.6 752.9,381.5 758.5,383.3 764.1,385.1 769.7,386.8 775.3,388.5 780.9,390.2 786.5,391.7 792.1,393.2 797.7,394.6 803.3,396.0 808.9,397.2 814.5,398.4 820.1,399.4 825.7,400.3 831.3,401.2 836.9,401.9 842.5,402.5 848.1,403.0 853.7,403.4 859.3,403.6 864.9,403.8 870.5,403.8 876.1,403.6 881.7,403.4 887.3,403.0 892.9,402.5 898.5,401.9 904.1,401.1 909.7,400.3 915.3,399.3 920.9,398.2 926.5,397.0 932.1,395.7 937.7,394.3 943.3,392.9 948.8,391.3 954.4,389.6 960.0,387.9 965.6,386.2 971.2,384.3 976.8,382.4 982.4,380.5 988.0,378.6 993.6,376.6 999.2,374.6 1004.8,372.6 1010.4,370.6 1016.0,368.6 1021.6,366.6 1027.2,364.7 1032.8,362.8 1038.4,360.9 1044.0,359.2 1049.6,357.5 1055.2,355.9 1060.8,354.4 1066.4,353.0 1072.0,351.8" fill="none" stroke="#f97316" stroke-width="2" opacity="0.92"/>
<text x="16" y="560.0" fill="#d6dde6" font-family="Segoe UI, Arial" font-size="13">Yaw</text>
<line x1="70" y1="555.0" x2="1076" y2="555.0" stroke="#33414d" stroke-width="1"/>
<line x1="70" y1="494" x2="70" y2="616" stroke="#33414d" stroke-width="1"/>
<polyline points="70.0,527.5 75.6,527.8 81.2,528.4 86.8,529.5 92.4,530.9 98.0,532.6 103.6,534.5 109.2,536.6 114.8,538.7 120.4,540.8 126.0,542.7 131.6,544.6 137.2,546.3 142.8,547.9 148.4,549.2 154.0,550.4 159.6,551.4 165.2,552.3 170.8,553.0 176.4,553.6 182.0,554.2 187.6,554.7 193.2,555.0 198.7,555.0 204.3,555.5 209.9,556.0 215.5,556.5 221.1,557.2 226.7,557.9 232.3,558.8 237.9,559.9 243.5,561.1 249.1,562.5 254.7,564.1 260.3,565.8 265.9,567.7 271.5,569.8 277.1,571.8 282.7,573.9 288.3,576.0 293.9,577.8 299.5,579.5 305.1,580.8 310.7,581.8 316.3,582.3 321.9,582.4 327.5,582.1 333.1,581.3 338.7,580.2 344.3,578.7 349.9,576.9 355.5,575.0 361.1,572.9 366.7,570.8 372.3,568.7 377.9,566.8 383.5,564.9 389.1,563.3 394.7,561.8 400.3,560.5 405.9,559.3 411.5,558.4 417.1,557.5 422.7,556.8 428.3,556.2 433.9,555.7 439.5,555.2 445.1,555.0 450.6,554.9 456.2,554.4 461.8,553.9 467.4,553.3 473.0,552.7 478.6,551.9 484.2,550.9 489.8,549.8 495.4,548.6 501.0,547.1 506.6,545.5 512.2,543.7 517.8,541.8 523.4,539.7 529.0,537.6 534.6,535.5 540.2,533.6 545.8,531.7 551.4,530.2 557.0,528.9 562.6,528.0 568.2,527.6 573.8,527.6 579.4,528.0 585.0,528.9 590.6,530.2 596.2,531.7 601.8,533.6 607.4,535.5 613.0,537.6 618.6,539.7 624.2,541.8 629.8,543.7 635.4,545.5 641.0,547.1 646.6,548.6 652.2,549.8 657.8,550.9 663.4,551.9 669.0,552.7 674.6,553.3 680.2,553.9 685.8,554.4 691.4,554.9 696.9,555.0 702.5,555.2 708.1,555.7 713.7,556.2 719.3,556.8 724.9,557.5 730.5,558.4 736.1,559.3 741.7,560.5 747.3,561.8 752.9,563.3 758.5,564.9 764.1,566.8 769.7,568.7 775.3,570.8 780.9,572.9 786.5,575.0 792.1,576.9 797.7,578.7 803.3,580.2 808.9,581.3 814.5,582.1 820.1,582.4 825.7,582.3 831.3,581.8 836.9,580.8 842.5,579.5 848.1,577.8 853.7,576.0 859.3,573.9 864.9,571.8 870.5,569.8 876.1,567.7 881.7,565.8 887.3,564.1 892.9,562.5 898.5,561.1 904.1,559.9 909.7,558.8 915.3,557.9 920.9,557.2 926.5,556.5 932.1,556.0 937.7,555.5 943.3,555.0 948.8,555.0 954.4,554.7 960.0,554.2 965.6,553.6 971.2,553.0 976.8,552.3 982.4,551.4 988.0,550.4 993.6,549.2 999.2,547.9 1004.8,546.3 1010.4,544.6 1016.0,542.7 1021.6,540.8 1027.2,538.7 1032.8,536.6 1038.4,534.5 1044.0,532.6 1049.6,530.9 1055.2,529.5 1060.8,528.4 1066.4,527.8 1072.0,527.5" fill="none" stroke="#38bdf8" stroke-width="2" opacity="0.92"/>
<polyline points="70.0,527.5 75.6,515.1 81.2,509.9 86.8,508.2 92.4,508.3 98.0,509.5 103.6,511.3 109.2,513.6 114.8,516.1 120.4,518.9 126.0,521.7 131.6,524.6 137.2,527.5 142.8,530.4 148.4,533.1 154.0,535.7 159.6,538.2 165.2,540.5 170.8,542.7 176.4,544.8 182.0,546.7 187.6,548.5 193.2,550.1 198.7,551.3 204.3,552.7 209.9,554.3 215.5,556.0 221.1,557.9 226.7,559.9 232.3,562.2 237.9,564.7 243.5,567.4 249.1,570.3 254.7,573.5 260.3,576.9 265.9,580.4 271.5,583.9 277.1,587.5 282.7,590.9 288.3,594.1 293.9,597.1 299.5,599.7 305.1,601.8 310.7,603.5 316.3,604.6 321.9,605.2 327.5,605.3 333.1,604.8 338.7,603.8 344.3,602.4 349.9,600.6 355.5,598.4 361.1,595.9 366.7,593.3 372.3,590.5 377.9,587.6 383.5,584.7 389.1,581.8 394.7,579.0 400.3,576.2 405.9,573.6 411.5,571.2 417.1,568.9 422.7,566.7 428.3,564.7 433.9,562.8 439.5,561.1 445.1,559.6 450.6,558.3 456.2,556.9 461.8,555.3 467.4,553.5 473.0,551.6 478.6,549.5 484.2,547.2 489.8,544.7 495.4,541.9 501.0,538.9 506.6,535.7 512.2,532.3 517.8,528.7 523.4,525.2 529.0,521.7 534.6,518.3 540.2,515.1 545.8,512.2 551.4,509.8 557.0,507.7 562.6,506.2 568.2,505.2 573.8,504.7 579.4,504.8 585.0,505.4 590.6,506.5 596.2,508.0 601.8,509.9 607.4,512.2 613.0,514.7 618.6,517.4 624.2,520.2 629.8,523.2 635.4,526.1 641.0,528.9 646.6,531.7 652.2,534.4 657.8,537.0 663.4,539.4 669.0,541.7 674.6,543.8 680.2,545.8 685.8,547.6 691.4,549.4 696.9,550.8 702.5,552.1 708.1,553.5 713.7,555.2 719.3,556.9 724.9,558.9 730.5,561.1 736.1,563.4 741.7,566.0 747.3,568.8 752.9,571.9 758.5,575.2 764.1,578.6 769.7,582.1 775.3,585.7 780.9,589.2 786.5,592.5 792.1,595.7 797.7,598.4 803.3,600.8 808.9,602.7 814.5,604.1 820.1,605.0 825.7,605.3 831.3,605.1 836.9,604.4 842.5,603.2 848.1,601.5 853.7,599.5 859.3,597.2 864.9,594.6 870.5,591.9 876.1,589.0 881.7,586.1 887.3,583.2 892.9,580.4 898.5,577.6 904.1,574.9 909.7,572.4 915.3,570.0 920.9,567.8 926.5,565.7 932.1,563.8 937.7,561.9 943.3,560.2 948.8,558.9 954.4,557.6 960.0,556.1 965.6,554.4 971.2,552.6 976.8,550.6 982.4,548.4 988.0,546.0 993.6,543.3 999.2,540.4 1004.8,537.3 1010.4,534.0 1016.0,530.5 1021.6,527.0 1027.2,523.4 1032.8,519.9 1038.4,516.7 1044.0,513.6 1049.6,510.9 1055.2,508.7 1060.8,506.9 1066.4,505.6 1072.0,504.9" fill="none" stroke="#f97316" stroke-width="2" opacity="0.92"/>
<text x="16" y="710.0" fill="#d6dde6" font-family="Segoe UI, Arial" font-size="13">Aux 1</text>
<line x1="70" y1="705.0" x2="1076" y2="705.0" stroke="#33414d" stroke-width="1"/>
<line x1="70" y1="644" x2="70" y2="766" stroke="#33414d" stroke-width="1"/>
<polyline points="70.0,705.0 75.6,705.6 81.2,706.9 86.8,708.3 92.4,709.8 98.0,711.4 103.6,713.1 109.2,715.0 114.8,717.0 120.4,719.1 126.0,721.2 131.6,723.4 137.2,725.7 142.8,727.9 148.4,730.1 154.0,732.2 159.6,734.2 165.2,736.0 170.8,737.5 176.4,738.8 182.0,739.8 187.6,740.5 193.2,740.8 198.7,740.8 204.3,740.4 209.9,739.6 215.5,738.5 221.1,737.2 226.7,735.5 232.3,733.7 237.9,731.7 243.5,729.5 249.1,727.3 254.7,725.1 260.3,722.9 265.9,720.7 271.5,718.5 277.1,716.5 282.7,714.5 288.3,712.7 293.9,711.0 299.5,709.4 305.1,707.9 310.7,706.6 316.3,705.3 321.9,705.0 327.5,704.1 333.1,702.8 338.7,701.4 344.3,699.8 349.9,698.2 355.5,696.4 361.1,694.5 366.7,692.5 372.3,690.4 377.9,688.2 383.5,686.0 389.1,683.8 394.7,681.5 400.3,679.4 405.9,677.3 411.5,675.4 417.1,673.6 422.7,672.1 428.3,670.9 433.9,670.0 439.5,669.4 445.1,669.2 450.6,669.3 456.2,669.8 461.8,670.6 467.4,671.8 473.0,673.2 478.6,674.9 484.2,676.8 489.8,678.8 495.4,681.0 501.0,683.2 506.6,685.5 512.2,687.7 517.8,689.9 523.4,692.0 529.0,694.0 534.6,695.9 540.2,697.7 545.8,699.4 551.4,701.0 557.0,702.4 562.6,703.8 568.2,705.0 573.8,705.0 579.4,706.2 585.0,707.6 590.6,709.0 596.2,710.6 601.8,712.3 607.4,714.1 613.0,716.0 618.6,718.0 624.2,720.1 629.8,722.3 635.4,724.5 641.0,726.8 646.6,729.0 652.2,731.2 657.8,733.2 663.4,735.1 669.0,736.8 674.6,738.2 680.2,739.4 685.8,740.2 691.4,740.7 696.9,740.8 702.5,740.6 708.1,740.0 713.7,739.1 719.3,737.9 724.9,736.4 730.5,734.6 736.1,732.7 741.7,730.6 747.3,728.5 752.9,726.2 758.5,724.0 764.1,721.8 769.7,719.6 775.3,717.5 780.9,715.5 786.5,713.6 792.1,711.8 797.7,710.2 803.3,708.6 808.9,707.2 814.5,705.9 820.1,705.0 825.7,704.7 831.3,703.4 836.9,702.1 842.5,700.6 848.1,699.0 853.7,697.3 859.3,695.5 864.9,693.5 870.5,691.5 876.1,689.3 881.7,687.1 887.3,684.9 892.9,682.7 898.5,680.5 904.1,678.3 909.7,676.3 915.3,674.5 920.9,672.8 926.5,671.5 932.1,670.4 937.7,669.6 943.3,669.2 948.8,669.2 954.4,669.5 960.0,670.2 965.6,671.2 971.2,672.5 976.8,674.0 982.4,675.8 988.0,677.8 993.6,679.9 999.2,682.1 1004.8,684.3 1010.4,686.6 1016.0,688.8 1021.6,690.9 1027.2,693.0 1032.8,695.0 1038.4,696.9 1044.0,698.6 1049.6,700.2 1055.2,701.7 1060.8,703.1 1066.4,704.4 1072.0,705.0" fill="none" stroke="#38bdf8" stroke-width="2" opacity="0.92"/>
<polyline points="70.0,705.0 75.6,705.6 81.2,707.3 86.8,709.6 92.4,712.5 98.0,715.6 103.6,719.0 109.2,722.4 114.8,725.8 120.4,729.3 126.0,732.7 131.6,736.1 137.2,739.3 142.8,742.4 148.4,745.3 154.0,748.0 159.6,750.5 165.2,752.7 170.8,754.7 176.4,756.3 182.0,757.5 187.6,758.4 193.2,758.9 198.7,759.1 204.3,758.8 209.9,758.2 215.5,757.3 221.1,756.0 226.7,754.5 232.3,752.6 237.9,750.6 243.5,748.3 249.1,745.8 254.7,743.2 260.3,740.4 265.9,737.6 271.5,734.7 277.1,731.8 282.7,728.8 288.3,725.8 293.9,722.8 299.5,719.9 305.1,717.0 310.7,714.0 316.3,711.2 321.9,709.0 327.5,706.6 333.1,703.8 338.7,700.6 344.3,697.3 349.9,693.9 355.5,690.4 361.1,686.8 366.7,683.3 372.3,679.9 377.9,676.5 383.5,673.1 389.1,669.9 394.7,666.9 400.3,664.0 405.9,661.3 411.5,658.9 417.1,656.8 422.7,654.9 428.3,653.4 433.9,652.2 439.5,651.4 445.1,651.0 450.6,651.0 456.2,651.3 461.8,652.0 467.4,653.0 473.0,654.3 478.6,656.0 484.2,657.9 489.8,660.0 495.4,662.3 501.0,664.8 506.6,667.5 512.2,670.3 517.8,673.1 523.4,676.0 529.0,679.0 534.6,682.0 540.2,684.9 545.8,687.9 551.4,690.8 557.0,693.8 562.6,696.7 568.2,699.6 573.8,701.5 579.4,704.0 585.0,707.0 590.6,710.2 596.2,713.5 601.8,717.0 607.4,720.5 613.0,724.0 618.6,727.5 624.2,731.0 629.8,734.4 635.4,737.7 641.0,740.9 646.6,743.9 652.2,746.7 657.8,749.3 663.4,751.7 669.0,753.7 674.6,755.5 680.2,756.9 685.8,758.0 691.4,758.7 696.9,759.0 702.5,759.0 708.1,758.6 713.7,757.8 719.3,756.7 724.9,755.3 730.5,753.6 736.1,751.6 741.7,749.4 747.3,747.1 752.9,744.5 758.5,741.8 764.1,739.0 769.7,736.2 775.3,733.2 780.9,730.3 786.5,727.3 792.1,724.3 797.7,721.4 803.3,718.4 808.9,715.5 814.5,712.6 820.1,709.9 825.7,707.9 831.3,705.2 836.9,702.2 842.5,699.0 848.1,695.6 853.7,692.1 859.3,688.6 864.9,685.1 870.5,681.6 876.1,678.2 881.7,674.8 887.3,671.5 892.9,668.4 898.5,665.4 904.1,662.6 909.7,660.1 915.3,657.8 920.9,655.8 926.5,654.1 932.1,652.8 937.7,651.8 943.3,651.2 948.8,650.9 954.4,651.1 960.0,651.6 965.6,652.4 971.2,653.6 976.8,655.1 982.4,656.9 988.0,658.9 993.6,661.1 999.2,663.6 1004.8,666.2 1010.4,668.9 1016.0,671.7 1021.6,674.6 1027.2,677.5 1032.8,680.5 1038.4,683.4 1044.0,686.4 1049.6,689.4 1055.2,692.3 1060.8,695.2 1066.4,698.1 1072.0,700.5" fill="none" stroke="#f97316" stroke-width="2" opacity="0.92"/>
<text x="16" y="860.0" fill="#d6dde6" font-family="Segoe UI, Arial" font-size="13">Aux 2</text>
<line x1="70" y1="855.0" x2="1076" y2="855.0" stroke="#33414d" stroke-width="1"/>
<line x1="70" y1="794" x2="70" y2="916" stroke="#33414d" stroke-width="1"/>
<polyline points="70.0,883.5 75.6,885.4 81.2,887.0 86.8,888.4 92.4,889.5 98.0,890.3 103.6,890.7 109.2,890.8 114.8,890.5 120.4,889.9 126.0,888.9 131.6,887.6 137.2,886.1 142.8,884.3 148.4,882.4 154.0,880.3 159.6,878.1 165.2,875.9 170.8,873.6 176.4,871.4 182.0,869.2 187.6,867.2 193.2,865.2 198.7,863.3 204.3,861.5 209.9,859.9 215.5,858.4 221.1,857.0 226.7,855.7 232.3,855.0 237.9,854.5 243.5,853.2 249.1,851.9 254.7,850.4 260.3,848.8 265.9,847.0 271.5,845.2 277.1,843.2 282.7,841.1 288.3,839.0 293.9,836.8 299.5,834.5 305.1,832.3 310.7,830.1 316.3,828.0 321.9,826.0 327.5,824.2 333.1,822.6 338.7,821.3 344.3,820.3 349.9,819.6 355.5,819.2 361.1,819.2 366.7,819.6 372.3,820.3 377.9,821.4 383.5,822.7 389.1,824.3 394.7,826.1 400.3,828.1 405.9,830.3 411.5,832.5 417.1,834.7 422.7,836.9 428.3,839.1 433.9,841.3 439.5,843.3 445.1,845.3 450.6,847.1 456.2,848.9 461.8,850.5 467.4,852.0 473.0,853.3 478.6,854.6 484.2,855.0 489.8,855.8 495.4,857.1 501.0,858.5 506.6,860.0 512.2,861.7 517.8,863.4 523.4,865.3 529.0,867.3 534.6,869.4 540.2,871.6 545.8,873.8 551.4,876.0 557.0,878.3 562.6,880.4 568.2,882.5 573.8,884.5 579.4,886.2 585.0,887.8 590.6,889.0 596.2,890.0 601.8,890.6 607.4,890.8 613.0,890.7 618.6,890.3 624.2,889.4 629.8,888.3 635.4,886.9 641.0,885.2 646.6,883.4 652.2,881.3 657.8,879.2 663.4,877.0 669.0,874.7 674.6,872.5 680.2,870.3 685.8,868.2 691.4,866.2 696.9,864.2 702.5,862.4 708.1,860.7 713.7,859.1 719.3,857.7 724.9,856.4 730.5,855.1 736.1,855.0 741.7,853.9 747.3,852.6 752.9,851.1 758.5,849.6 764.1,847.9 769.7,846.1 775.3,844.2 780.9,842.2 786.5,840.1 792.1,837.9 797.7,835.7 803.3,833.4 808.9,831.2 814.5,829.0 820.1,827.0 825.7,825.1 831.3,823.4 836.9,821.9 842.5,820.7 848.1,819.9 853.7,819.3 859.3,819.2 864.9,819.4 870.5,819.9 876.1,820.8 881.7,822.0 887.3,823.5 892.9,825.2 898.5,827.1 904.1,829.2 909.7,831.4 915.3,833.6 920.9,835.8 926.5,838.0 932.1,840.2 937.7,842.3 943.3,844.3 948.8,846.2 954.4,848.0 960.0,849.7 965.6,851.2 971.2,852.7 976.8,854.0 982.4,855.0 988.0,855.2 993.6,856.4 999.2,857.8 1004.8,859.2 1010.4,860.8 1016.0,862.5 1021.6,864.4 1027.2,866.3 1032.8,868.3 1038.4,870.5 1044.0,872.7 1049.6,874.9 1055.2,877.1 1060.8,879.4 1066.4,881.5 1072.0,883.5" fill="none" stroke="#38bdf8" stroke-width="2" opacity="0.92"/>
<polyline points="70.0,883.5 75.6,896.0 81.2,901.9 86.8,905.0 92.4,906.9 98.0,908.0 103.6,908.7 109.2,909.0 114.8,908.9 120.4,908.5 126.0,907.7 131.6,906.5 137.2,905.0 142.8,903.3 148.4,901.3 154.0,899.1 159.6,896.6 165.2,894.1 170.8,891.4 176.4,888.6 182.0,885.7 187.6,882.7 193.2,879.8 198.7,876.8 204.3,873.8 209.9,870.9 215.5,867.9 221.1,865.0 226.7,862.1 232.3,859.6 237.9,857.5 243.5,854.8 249.1,851.7 254.7,848.4 260.3,845.0 265.9,841.5 271.5,838.0 277.1,834.5 282.7,831.0 288.3,827.6 293.9,824.2 299.5,821.0 305.1,817.9 310.7,814.9 316.3,812.2 321.9,809.7 327.5,807.4 333.1,805.5 338.7,803.9 344.3,802.6 349.9,801.7 355.5,801.1 361.1,800.9 366.7,801.1 372.3,801.7 377.9,802.6 383.5,803.8 389.1,805.4 394.7,807.2 400.3,809.2 405.9,811.5 411.5,814.0 417.1,816.6 422.7,819.3 428.3,822.2 433.9,825.0 439.5,828.0 445.1,831.0 450.6,833.9 456.2,836.9 461.8,839.9 467.4,842.8 473.0,845.7 478.6,848.6 484.2,850.8 489.8,853.2 495.4,856.0 501.0,859.1 506.6,862.4 512.2,865.8 517.8,869.3 523.4,872.8 529.0,876.4 534.6,879.8 540.2,883.2 545.8,886.6 551.4,889.8 557.0,892.9 562.6,895.8 568.2,898.5 573.8,900.9 579.4,903.1 585.0,904.9 590.6,906.5 596.2,907.7 601.8,908.5 607.4,909.0 613.0,909.0 618.6,908.8 624.2,908.1 629.8,907.1 635.4,905.8 641.0,904.2 646.6,902.3 652.2,900.2 657.8,897.9 663.4,895.4 669.0,892.7 674.6,890.0 680.2,887.1 685.8,884.2 691.4,881.3 696.9,878.3 702.5,875.3 708.1,872.4 713.7,869.4 719.3,866.5 724.9,863.6 730.5,860.7 736.1,858.7 741.7,856.2 747.3,853.3 752.9,850.1 758.5,846.8 764.1,843.3 769.7,839.8 775.3,836.3 780.9,832.8 786.5,829.3 792.1,825.9 797.7,822.6 803.3,819.4 808.9,816.4 814.5,813.5 820.1,810.9 825.7,808.5 831.3,806.4 836.9,804.6 842.5,803.2 848.1,802.1 853.7,801.4 859.3,801.0 864.9,801.0 870.5,801.4 876.1,802.1 881.7,803.2 887.3,804.6 892.9,806.2 898.5,808.2 904.1,810.4 909.7,812.7 915.3,815.3 920.9,817.9 926.5,820.7 932.1,823.6 937.7,826.5 943.3,829.5 948.8,832.4 954.4,835.4 960.0,838.4 965.6,841.3 971.2,844.2 976.8,847.1 982.4,849.9 988.0,851.9 993.6,854.5 999.2,857.5 1004.8,860.7 1010.4,864.1 1016.0,867.6 1021.6,871.1 1027.2,874.6 1032.8,878.1 1038.4,881.5 1044.0,884.9 1049.6,888.2 1055.2,891.4 1060.8,894.3 1066.4,897.1 1072.0,899.7" fill="none" stroke="#f97316" stroke-width="2" opacity="0.92"/>
<text x="780" y="28" fill="#38bdf8" font-family="Segoe UI, Arial" font-size="13">measured bridge final</text>
<text x="930" y="28" fill="#f97316" font-family="Segoe UI, Arial" font-size="13">stateful intended</text>
</svg>