<svg xmlns="http://www.w3.org/2000/svg" width="1100" height="974" viewBox="0 0 1100 974">
<rect width="100%" height="100%" fill="#0f1419"/>
<text x="24" y="28" fill="#f4f7fb" font-family="Segoe UI, Arial" font-size="18">Math-stage stress measured output vs stateful intended output</text>
<text x="16" y="110.0" fill="#d6dde6" font-family="Segoe UI, Arial" font-size="13">Roll</text>
<line x1="70" y1="105.0" x2="1076" y2="105.0" stroke="#33414d" stroke-width="1"/>
<line x1="70" y1="44" x2="70" y2="166" stroke="#33414d" stroke-width="1"/>
<polyline points="70.0,105.0 80.5,105.0 91.1,105.0 101.6,103.5 112.2,100.9 122.7,90.4 133.3,90.4 143.8,102.5 154.4,105.0 164.9,107.1 175.5,119.6 186.0,119.6 196.6,105.0 207.1,105.0 217.7,97.9 228.2,113.5 238.8,105.0 249.3,105.0 259.9,105.0 270.4,103.5 280.9,100.9 291.5,90.4 302.0,90.4 312.6,102.5 323.1,105.0 333.7,107.1 344.2,119.6 354.8,119.6 365.3,105.0 375.9,105.0 386.4,97.9 397.0,113.5 407.5,105.0 418.1,105.0 428.6,105.0 439.2,103.5 449.7,100.9 460.3,90.4 470.8,90.4 481.3,102.5 491.9,105.0 502.4,107.1 513.0,119.6 523.5,119.6 534.1,105.0 544.6,105.0 555.2,97.9 565.7,113.5 576.3,105.0 586.8,105.0 597.4,105.0 607.9,103.5 618.5,100.9 629.0,90.4 639.6,90.4 650.1,102.5 660.7,105.0 671.2,107.1 681.7,119.6 692.3,119.6 702.8,105.0 713.4,105.0 723.9,97.9 734.5,113.5 745.0,105.0 755.6,105.0 766.1,105.0 776.7,103.5 787.2,100.9 797.8,90.4 808.3,90.4 818.9,102.5 829.4,105.0 840.0,107.1 850.5,119.6 861.1,119.6 871.6,105.0 882.1,105.0 892.7,97.9 903.2,113.5 913.8,105.0 924.3,105.0 934.9,105.0 945.4,103.5 956.0,100.9 966.5,90.4 977.1,90.4 987.6,102.5 998.2,105.0 1008.7,107.1 1019.3,119.6 1029.8,119.6 1040.4,105.0 1050.9,105.0 1061.5,97.9 1072.0,113.5" fill="none" stroke="#38bdf8" stroke-width="2" opacity="0.92"/>
<polyline points="70.0,105.0 80.5,105.0 91.1,105.0 101.6,103.5 112.2,99.9 122.7,87.6 133.3,73.0 143.8,79.3 154.4,83.9 164.9,90.6 175.5,97.3 186.0,104.0 196.6,104.2 207.1,104.4 217.7,97.5 228.2,104.3 238.8,104.4 249.3,104.5 259.9,104.6 270.4,103.2 280.9,99.7 291.5,87.5 302.0,72.9 312.6,79.2 323.1,83.9 333.7,90.6 344.2,97.3 354.8,104.0 365.3,104.2 375.9,104.3 386.4,97.5 397.0,104.2 407.5,104.4 418.1,104.5 428.6,104.6 439.2,103.2 449.7,99.6 460.3,87.5 470.8,72.9 481.3,79.2 491.9,83.9 502.4,90.6 513.0,97.3 523.5,104.0 534.1,104.2 544.6,104.3 555.2,97.5 565.7,104.2 576.3,104.4 586.8,104.5 597.4,104.6 607.9,103.2 618.5,99.6 629.0,87.5 639.6,72.9 650.1,79.2 660.7,83.9 671.2,90.6 681.7,97.3 692.3,104.0 702.8,104.2 713.4,104.3 723.9,97.5 734.5,104.2 745.0,104.4 755.6,104.5 766.1,104.6 776.7,103.2 787.2,99.6 797.8,87.5 808.3,72.9 818.9,79.2 829.4,83.9 840.0,90.6 850.5,97.3 861.1,104.0 871.6,104.2 882.1,104.3 892.7,97.5 903.2,104.2 913.8,104.4 924.3,104.5 934.9,104.6 945.4,103.2 956.0,99.6 966.5,87.5 977.1,72.9 987.6,79.2 998.2,83.9 1008.7,90.6 1019.3,97.3 1029.8,104.0 1040.4,104.2 1050.9,104.3 1061.5,97.5 1072.0,104.2" fill="none" stroke="#f97316" stroke-width="2" opacity="0.92"/>
<text x="16" y="260.0" fill="#d6dde6" font-family="Segoe UI, Arial" font-size="13">Pitch</text>
<line x1="70" y1="255.0" x2="1076" y2="255.0" stroke="#33414d" stroke-width="1"/>
<line x1="70" y1="194" x2="70" y2="316" stroke="#33414d" stroke-width="1"/>
<polyline points="70.0,253.5 80.5,250.9 91.1,240.4 101.6,240.4 112.2,252.5 122.7,255.0 133.3,257.1 143.8,269.6 154.4,269.6 164.9,255.0 175.5,255.0 186.0,247.9 196.6,263.5 207.1,255.0 217.7,255.0 228.2,255.0 238.8,253.5 249.3,250.9 259.9,240.4 270.4,240.4 280.9,252.5 291.5,255.0 302.0,257.1 312.6,269.6 323.1,269.6 333.7,255.0 344.2,255.0 354.8,247.9 365.3,263.5 375.9,255.0 386.4,255.0 397.0,255.0 407.5,253.5 418.1,250.9 428.6,240.4 439.2,240.4 449.7,252.5 460.3,255.0 470.8,257.1 481.3,269.6 491.9,269.6 502.4,255.0 513.0,255.0 523.5,247.9 534.1,263.5 544.6,255.0 555.2,255.0 565.7,255.0 576.3,253.5 586.8,250.9 597.4,240.4 607.9,240.4 618.5,252.5 629.0,255.0 639.6,257.1 650.1,269.6 660.7,269.6 671.2,255.0 681.7,255.0 692.3,247.9 702.8,263.5 713.4,255.0 723.9,255.0 734.5,255.0 745.0,253.5 755.6,250.9 766.1,240.4 776.7,240.4 787.2,252.5 797.8,255.0 808.3,257.1 818.9,269.6 829.4,269.6 840.0,255.0 850.5,255.0 861.1,247.9 871.6,263.5 882.1,255.0 892.7,255.0 903.2,255.0 913.8,253.5 924.3,250.9 934.9,240.4 945.4,240.4 956.0,252.5 966.5,255.0 977.1,257.1 987.6,269.6 998.2,269.6 1008.7,255.0 1019.3,255.0 1029.8,247.9 1040.4,263.5 1050.9,255.0 1061.5,255.0 1072.0,255.0" fill="none" stroke="#38bdf8" stroke-width="2" opacity="0.92"/>
<polyline points="70.0,253.5 80.5,249.9 91.1,237.6 101.6,223.0 112.2,229.3 122.7,233.9 133.3,240.6 143.8,247.3 154.4,254.0 164.9,254.2 175.5,254.4 186.0,247.5 196.6,254.3 207.1,254.4 217.7,254.5 228.2,254.6 238.8,253.2 249.3,249.7 259.9,237.5 270.4,222.9 280.9,229.2 291.5,233.9 302.0,240.6 312.6,247.3 323.1,254.0 333.7,254.2 344.2,254.3 354.8,247.5 365.3,254.2 375.9,254.4 386.4,254.5 397.0,254.6 407.5,253.2 418.1,249.6 428.6,237.5 439.2,222.9 449.7,229.2 460.3,233.9 470.8,240.6 481.3,247.3 491.9,254.0 502.4,254.2 513.0,254.3 523.5,247.5 534.1,254.2 544.6,254.4 555.2,254.5 565.7,254.6 576.3,253.2 586.8,249.6 597.4,237.5 607.9,222.9 618.5,229.2 629.0,233.9 639.6,240.6 650.1,247.3 660.7,254.0 671.2,254.2 681.7,254.3 692.3,247.5 702.8,254.2 713.4,254.4 723.9,254.5 734.5,254.6 745.0,253.2 755.6,249.6 766.1,237.5 776.7,222.9 787.2,229.2 797.8,233.9 808.3,240.6 818.9,247.3 829.4,254.0 840.0,254.2 850.5,254.3 861.1,247.5 871.6,254.2 882.1,254.4 892.7,254.5 903.2,254.6 913.8,253.2 924.3,249.6 934.9,237.5 945.4,222.9 956.0,229.2 966.5,233.9 977.1,240.6 987.6,247.3 998.2,254.0 1008.7,254.2 1019.3,254.3 1029.8,247.5 1040.4,254.2 1050.9,254.4 1061.5,254.5 1072.0,254.6" fill="none" stroke="#f97316" stroke-width="2" opacity="0.92"/>
<text x="16" y="410.0" fill="#d6dde6" font-family="Segoe UI, Arial" font-size="13">Throttle</text>
<line x1="70" y1="405.0" x2="1076" y2="405.0" stroke="#33414d" stroke-width="1"/>
<line x1="70" y1="344" x2="70" y2="466" stroke="#33414d" stroke-width="1"/>
<polyline points="70.0,390.4 80.5,390.4 91.1,390.4 101.6,396.4 112.2,398.3 122.7,402.8 133.3,405.0 143.8,395.8 154.4,394.7 164.9,390.4 175.5,401.5 186.0,394.7 196.6,394.1 207.1,392.8 217.7,391.2 228.2,390.4 238.8,390.4 249.3,390.4 259.9,390.4 270.4,396.4 280.9,398.3 291.5,402.8 302.0,405.0 312.6,395.8 323.1,394.7 333.7,390.4 344.2,401.5 354.8,394.7 365.3,394.1 375.9,392.8 386.4,391.2 397.0,390.4 407.5,390.4 418.1,390.4 428.6,390.4 439.2,396.4 449.7,398.3 460.3,402.8 470.8,405.0 481.3,395.8 491.9,394.7 502.4,390.4 513.0,401.5 523.5,394.7 534.1,394.1 544.6,392.8 555.2,391.2 565.7,390.4 576.3,390.4 586.8,390.4 597.4,390.4 607.9,396.4 618.5,398.3 629.0,402.8 639.6,405.0 650.1,395.8 660.7,394.7 671.2,390.4 681.7,401.5 692.3,394.7 702.8,394.1 713.4,392.8 723.9,391.2 734.5,390.4 745.0,390.4 755.6,390.4 766.1,390.4 776.7,396.4 787.2,398.3 797.8,402.8 808.3,405.0 818.9,395.8 829.4,394.7 840.0,390.4 850.5,401.5 861.1,394.7 871.6,394.1 882.1,392.8 892.7,391.2 903.2,390.4 913.8,390.4 924.3,390.4 934.9,390.4 945.4,396.4 956.0,398.3 966.5,402.8 977.1,405.0 987.6,395.8 998.2,394.7 1008.7,390.4 1019.3,401.5 1029.8,394.7 1040.4,394.1 1050.9,392.8 1061.5,391.2 1072.0,390.4" fill="none" stroke="#38bdf8" stroke-width="2" opacity="0.92"/>
<polyline points="70.0,390.4 80.5,375.7 91.1,374.3 101.6,378.1 112.2,381.3 122.7,385.5 133.3,389.0 143.8,386.4 154.4,384.1 164.9,371.7 175.5,378.2 186.0,379.5 196.6,379.8 207.1,379.2 217.7,377.8 228.2,372.9 238.8,365.3 249.3,362.6 259.9,367.9 270.4,374.3 280.9,379.0 291.5,383.7 302.0,387.5 312.6,385.6 323.1,383.7 333.7,371.5 344.2,378.1 354.8,379.4 365.3,379.8 375.9,379.1 386.4,377.8 397.0,372.9 407.5,365.3 418.1,362.6 428.6,367.9 439.2,374.3 449.7,379.0 460.3,383.7 470.8,387.5 481.3,385.6 491.9,383.7 502.4,371.5 513.0,378.1 523.5,379.4 534.1,379.8 544.6,379.1 555.2,377.8 565.7,372.9 576.3,365.3 586.8,362.6 597.4,367.9 607.9,374.3 618.5,379.0 629.0,383.7 639.6,387.5 650.1,385.6 660.7,383.7 671.2,371.5 681.7,378.1 692.3,379.4 702.8,379.8 713.4,379.1 723.9,377.8 734.5,372.9 745.0,365.3 755.6,362.6 766.1,367.9 776.7,374.3 787.2,379.0 797.8,383.7 808.3,387.5 818.9,385.6 829.4,383.7 840.0,371.5 850.5,378.1 861.1,379.4 871.6,379.8 882.1,379.1 892.7,377.8 903.2,372.9 913.8,365.3 924.3,362.6 934.9,367.9 945.4,374.3 956.0,379.0 966.5,383.7 977.1,387.5 987.6,385.6 998.2,383.7 1008.7,371.5 1019.3,378.1 1029.8,379.4 1040.4,379.8 1050.9,379.1 1061.5,377.8 1072.0,372.9" fill="none" stroke="#f97316" stroke-width="2" opacity="0.92"/>
<text x="16" y="560.0" fill="#d6dde6" font-family="Segoe UI, Arial" font-size="13">Yaw</text>
<line x1="70" y1="555.0" x2="1076" y2="555.0" stroke="#33414d" stroke-width="1"/>
<line x1="70" y1="494" x2="70" y2="616" stroke="#33414d" stroke-width="1"/>
<polyline points="70.0,555.0 80.5,557.1 91.1,569.6 101.6,569.6 112.2,555.0 122.7,555.0 133.3,547.9 143.8,563.5 154.4,555.0 164.9,555.0 175.5,555.0 186.0,553.5 196.6,550.9 207.1,540.4 217.7,540.4 228.2,552.5 238.8,555.0 249.3,557.1 259.9,569.6 270.4,569.6 280.9,555.0 291.5,555.0 302.0,547.9 312.6,563.5 323.1,555.0 333.7,555.0 344.2,555.0 354.8,553.5 365.3,550.9 375.9,540.4 386.4,540.4 397.0,552.5 407.5,555.0 418.1,557.1 428.6,569.6 439.2,569.6 449.7,555.0 460.3,555.0 470.8,547.9 481.3,563.5 491.9,555.0 502.4,555.0 513.0,555.0 523.5,553.5 534.1,550.9 544.6,540.4 555.2,540.4 565.7,552.5 576.3,555.0 586.8,557.1 597.4,569.6 607.9,569.6 618.5,555.0 629.0,555.0 639.6,547.9 650.1,563.5 660.7,555.0 671.2,555.0 681.7,555.0 692.3,553.5 702.8,550.9 713.4,540.4 723.9,540.4 734.5,552.5 745.0,555.0 755.6,557.1 766.1,569.6 776.7,569.6 787.2,555.0 797.8,555.0 808.3,547.9 818.9,563.5 829.4,555.0 840.0,555.0 850.5,555.0 861.1,553.5 871.6,550.9 882.1,540.4 892.7,540.4 903.2,552.5 913.8,555.0 924.3,557.1 934.9,569.6 945.4,569.6 956.0,555.0 966.5,555.0 977.1,547.9 987.6,563.5 998.2,555.0 1008.7,555.0 1019.3,555.0 1029.8,553.5 1040.4,550.9 1050.9,540.4 1061.5,540.4 1072.0,552.5" fill="none" stroke="#38bdf8" stroke-width="2" opacity="0.92"/>
<polyline points="70.0,555.0 80.5,557.1 91.1,571.8 101.6,586.4 112.2,580.8 122.7,576.1 133.3,569.6 143.8,567.6 154.4,565.3 164.9,563.5 175.5,562.0 186.0,558.8 196.6,553.5 207.1,539.4 217.7,524.8 228.2,530.6 238.8,535.0 249.3,541.7 259.9,548.4 270.4,555.1 280.9,555.1 291.5,555.1 302.0,553.7 312.6,555.6 323.1,555.5 333.7,555.4 344.2,555.4 354.8,553.8 365.3,550.1 375.9,537.7 386.4,523.1 397.0,529.4 407.5,534.0 418.1,540.7 428.6,547.4 439.2,554.1 449.7,554.3 460.3,554.4 470.8,553.1 481.3,555.2 491.9,555.2 502.4,555.2 513.0,555.1 523.5,553.6 534.1,549.9 544.6,537.7 555.2,523.0 565.7,529.3 576.3,533.9 586.8,540.7 597.4,547.4 607.9,554.1 618.5,554.2 629.0,554.4 639.6,553.1 650.1,555.2 660.7,555.2 671.2,555.2 681.7,555.1 692.3,553.6 702.8,549.9 713.4,537.7 723.9,523.0 734.5,529.3 745.0,533.9 755.6,540.6 766.1,547.4 776.7,554.1 787.2,554.2 797.8,554.4 808.3,553.1 818.9,555.2 829.4,555.2 840.0,555.2 850.5,555.1 861.1,553.6 871.6,549.9 882.1,537.7 892.7,523.0 903.2,529.3 913.8,533.9 924.3,540.6 934.9,547.4 945.4,554.1 956.0,554.2 966.5,554.4 977.1,553.1 987.6,555.2 998.2,555.2 1008.7,555.2 1019.3,555.1 1029.8,553.6 1040.4,549.9 1050.9,537.7 1061.5,523.0 1072.0,529.3" fill="none" stroke="#f97316" stroke-width="2" opacity="0.92"/>
<text x="16" y="710.0" fill="#d6dde6" font-family="Segoe UI, Arial" font-size="13">Aux 1</text>
<line x1="70" y1="705.0" x2="1076" y2="705.0" stroke="#33414d" stroke-width="1"/>
<line x1="70" y1="644" x2="70" y2="766" stroke="#33414d" stroke-width="1"/>
<polyline points="70.0,719.6 80.5,719.6 91.1,705.0 101.6,705.0 112.2,697.9 122.7,713.5 133.3,705.0 143.8,705.0 154.4,705.0 164.9,703.5 175.5,700.9 186.0,690.4 196.6,690.4 207.1,702.5 217.7,705.0 228.2,707.1 238.8,719.6 249.3,719.6 259.9,705.0 270.4,705.0 280.9,697.9 291.5,713.5 302.0,705.0 312.6,705.0 323.1,705.0 333.7,703.5 344.2,700.9 354.8,690.4 365.3,690.4 375.9,702.5 386.4,705.0 397.0,707.1 407.5,719.6 418.1,719.6 428.6,705.0 439.2,705.0 449.7,697.9 460.3,713.5 470.8,705.0 481.3,705.0 491.9,705.0 502.4,703.5 513.0,700.9 523.5,690.4 534.1,690.4 544.6,702.5 555.2,705.0 565.7,707.1 576.3,719.6 586.8,719.6 597.4,705.0 607.9,705.0 618.5,697.9 629.0,713.5 639.6,705.0 650.1,705.0 660.7,705.0 671.2,703.5 681.7,700.9 692.3,690.4 702.8,690.4 713.4,702.5 723.9,705.0 734.5,707.1 745.0,719.6 755.6,719.6 766.1,705.0 776.7,705.0 787.2,697.9 797.8,713.5 808.3,705.0 818.9,705.0 829.4,705.0 840.0,703.5 850.5,700.9 861.1,690.4 871.6,690.4 882.1,702.5 892.7,705.0 903.2,707.1 913.8,719.6 924.3,719.6 934.9,705.0 945.4,705.0 956.0,697.9 966.5,713.5 977.1,705.0 987.6,705.0 998.2,705.0 1008.7,703.5 1019.3,700.9 1029.8,690.4 1040.4,690.4 1050.9,702.5 1061.5,705.0 1072.0,707.1" fill="none" stroke="#38bdf8" stroke-width="2" opacity="0.92"/>
<polyline points="70.0,719.6 80.5,734.3 91.1,729.0 101.6,724.7 112.2,718.0 122.7,721.3 133.3,718.4 143.8,715.9 154.4,714.0 164.9,710.3 175.5,704.5 186.0,690.0 196.6,675.3 207.1,681.0 217.7,685.3 228.2,692.0 238.8,698.7 249.3,705.4 259.9,705.4 270.4,705.3 280.9,698.6 291.5,705.3 302.0,705.2 312.6,705.2 323.1,705.2 333.7,703.6 344.2,700.0 354.8,687.7 365.3,673.0 375.9,679.3 386.4,683.9 397.0,690.7 407.5,697.4 418.1,704.1 428.6,704.2 439.2,704.4 449.7,697.6 460.3,704.3 470.8,704.4 481.3,704.5 491.9,704.6 502.4,703.2 513.0,699.7 523.5,687.5 534.1,672.9 544.6,679.2 555.2,683.9 565.7,690.6 576.3,697.3 586.8,704.0 597.4,704.2 607.9,704.3 618.5,697.5 629.0,704.2 639.6,704.4 650.1,704.5 660.7,704.6 671.2,703.2 681.7,699.6 692.3,687.5 702.8,672.9 713.4,679.2 723.9,683.9 734.5,690.6 745.0,697.3 755.6,704.0 766.1,704.2 776.7,704.3 787.2,697.5 797.8,704.2 808.3,704.4 818.9,704.5 829.4,704.6 840.0,703.2 850.5,699.6 861.1,687.5 871.6,672.9 882.1,679.2 892.7,683.9 903.2,690.6 913.8,697.3 924.3,704.0 934.9,704.2 945.4,704.3 956.0,697.5 966.5,704.2 977.1,704.4 987.6,704.5 998.2,704.6 1008.7,703.2 1019.3,699.6 1029.8,687.5 1040.4,672.9 1050.9,679.2 1061.5,683.9 1072.0,690.6" fill="none" stroke="#f97316" stroke-width="2" opacity="0.92"/>
<text x="16" y="860.0" fill="#d6dde6" font-family="Segoe UI, Arial" font-size="13">Aux 2</text>
<line x1="70" y1="855.0" x2="1076" y2="855.0" stroke="#33414d" stroke-width="1"/>
<line x1="70" y1="794" x2="70" y2="916" stroke="#33414d" stroke-width="1"/>
<polyline points="70.0,855.0 80.5,847.9 91.1,863.5 101.6,855.0 112.2,855.0 122.7,855.0 133.3,853.5 143.8,850.9 154.4,840.4 164.9,840.4 175.5,852.5 186.0,855.0 196.6,857.1 207.1,869.6 217.7,869.6 228.2,855.0 238.8,855.0 249.3,847.9 259.9,863.5 270.4,855.0 280.9,855.0 291.5,855.0 302.0,853.5 312.6,850.9 323.1,840.4 333.7,840.4 344.2,852.5 354.8,855.0 365.3,857.1 375.9,869.6 386.4,869.6 397.0,855.0 407.5,855.0 418.1,847.9 428.6,863.5 439.2,855.0 449.7,855.0 460.3,855.0 470.8,853.5 481.3,850.9 491.9,840.4 502.4,840.4 513.0,852.5 523.5,855.0 534.1,857.1 544.6,869.6 555.2,869.6 565.7,855.0 576.3,855.0 586.8,847.9 597.4,863.5 607.9,855.0 618.5,855.0 629.0,855.0 639.6,853.5 650.1,850.9 660.7,840.4 671.2,840.4 681.7,852.5 692.3,855.0 702.8,857.1 713.4,869.6 723.9,869.6 734.5,855.0 745.0,855.0 755.6,847.9 766.1,863.5 776.7,855.0 787.2,855.0 797.8,855.0 808.3,853.5 818.9,850.9 829.4,840.4 840.0,840.4 850.5,852.5 861.1,855.0 871.6,857.1 882.1,869.6 892.7,869.6 903.2,855.0 913.8,855.0 924.3,847.9 934.9,863.5 945.4,855.0 956.0,855.0 966.5,855.0 977.1,853.5 987.6,850.9 998.2,840.4 1008.7,840.4 1019.3,852.5 1029.8,855.0 1040.4,857.1 1050.9,869.6 1061.5,869.6 1072.0,855.0" fill="none" stroke="#38bdf8" stroke-width="2" opacity="0.92"/>
<polyline points="70.0,855.0 80.5,847.9 91.1,854.7 101.6,854.7 112.2,854.8 122.7,854.8 133.3,853.4 143.8,849.8 154.4,837.6 164.9,822.9 175.5,829.3 186.0,833.9 196.6,840.6 207.1,847.3 217.7,854.0 228.2,854.2 238.8,854.3 249.3,847.5 259.9,854.2 270.4,854.4 280.9,854.5 291.5,854.6 302.0,853.2 312.6,849.7 323.1,837.5 333.7,822.9 344.2,829.2 354.8,833.9 365.3,840.6 375.9,847.3 386.4,854.0 397.0,854.2 407.5,854.3 418.1,847.5 428.6,854.2 439.2,854.4 449.7,854.5 460.3,854.6 470.8,853.2 481.3,849.6 491.9,837.5 502.4,822.9 513.0,829.2 523.5,833.9 534.1,840.6 544.6,847.3 555.2,854.0 565.7,854.2 576.3,854.3 586.8,847.5 597.4,854.2 607.9,854.4 618.5,854.5 629.0,854.6 639.6,853.2 650.1,849.6 660.7,837.5 671.2,822.9 681.7,829.2 692.3,833.9 702.8,840.6 713.4,847.3 723.9,854.0 734.5,854.2 745.0,854.3 755.6,847.5 766.1,854.2 776.7,854.4 787.2,854.5 797.8,854.6 808.3,853.2 818.9,849.6 829.4,837.5 840.0,822.9 850.5,829.2 861.1,833.9 871.6,840.6 882.1,847.3 892.7,854.0 903.2,854.2 913.8,854.3 924.3,847.5 934.9,854.2 945.4,854.4 956.0,854.5 966.5,854.6 977.1,853.2 987.6,849.6 998.2,837.5 1008.7,822.9 1019.3,829.2 1029.8,833.9 1040.4,840.6 1050.9,847.3 1061.5,854.0 1072.0,854.2" fill="none" stroke="#f97316" stroke-width="2" opacity="0.92"/>
<text x="780" y="28" fill="#38bdf8" font-family="Segoe UI, Arial" font-size="13">measured bridge final</text>
<text x="930" y="28" fill="#f97316" font-family="Segoe UI, Arial" font-size="13">stateful intended</text>
</svg>