<svg xmlns="http://www.w3.org/2000/svg" width="1100" height="974" viewBox="0 0 1100 974">
<rect width="100%" height="100%" fill="#0f1419"/>
<text x="24" y="28" fill="#f4f7fb" font-family="Segoe UI, Arial" font-size="18">Math-stage stress measured output vs stateful intended output</text>
<text x="16" y="110.0" fill="#d6dde6" font-family="Segoe UI, Arial" font-size="13">Roll</text>
<line x1="70" y1="105.0" x2="1076" y2="105.0" stroke="#33414d" stroke-width="1"/>
<line x1="70" y1="44" x2="70" y2="166" stroke="#33414d" stroke-width="1"/>
<polyline points="70.0,105.0 80.5,105.0 91.1,105.0 101.6,105.0 112.2,100.9 122.7,88.1 133.3,73.5 143.8,79.7 154.4,86.4 164.9,93.1 175.5,99.8 186.0,106.5 196.6,106.2 207.1,106.0 217.7,99.3 228.2,106.0 238.8,105.8 249.3,105.7 259.9,104.5 270.4,103.2 280.9,99.6 291.5,87.5 302.0,72.9 312.6,79.2 323.1,85.9 333.7,92.6 344.2,99.3 354.8,106.0 365.3,105.9 375.9,105.7 386.4,99.0 397.0,105.7 407.5,105.6 418.1,105.5 428.6,104.4 439.2,103.0 449.7,99.5 460.3,87.5 470.8,72.8 481.3,79.2 491.9,85.9 502.4,92.6 513.0,99.3 523.5,106.0 534.1,105.8 544.6,105.7 555.2,99.0 565.7,105.7 576.3,105.6 586.8,105.5 597.4,104.4 607.9,103.0 618.5,99.5 629.0,87.5 639.6,72.8 650.1,79.2 660.7,85.9 671.2,92.6 681.7,99.3 692.3,106.0 702.8,105.8 713.4,105.7 723.9,99.0 734.5,105.7 745.0,105.6 755.6,105.5 766.1,104.4 776.7,103.0 787.2,99.5 797.8,87.5 808.3,72.8 818.9,79.2 829.4,85.9 840.0,92.6 850.5,99.3 861.1,106.0 871.6,105.8 882.1,105.7 892.7,99.0 903.2,105.7 913.8,105.6 924.3,105.5 934.9,104.4 945.4,103.0 956.0,99.5 966.5,87.5 977.1,72.8 987.6,79.2 998.2,85.9 1008.7,92.6 1019.3,99.3 1029.8,106.0 1040.4,105.8 1050.9,105.7 1061.5,99.0 1072.0,105.7" fill="none" stroke="#38bdf8" stroke-width="2" opacity="0.92"/>
<polyline points="70.0,105.0 80.5,105.0 91.1,105.0 101.6,105.0 112.2,100.9 122.7,88.1 133.3,73.5 143.8,79.7 154.4,86.4 164.9,93.1 175.5,99.8 186.0,106.5 196.6,106.2 207.1,106.0 217.7,99.3 228.2,106.0 238.8,105.8 249.3,105.7 259.9,104.5 270.4,103.2 280.9,99.6 291.5,87.5 302.0,72.9 312.6,79.2 323.1,85.9 333.7,92.6 344.2,99.3 354.8,106.0 365.3,105.9 375.9,105.7 386.4,99.0 397.0,105.7 407.5,105.6 418.1,105.5 428.6,104.4 439.2,103.0 449.7,99.5 460.3,87.5 470.8,72.8 481.3,79.2 491.9,85.9 502.4,92.6 513.0,99.3 523.5,106.0 534.1,105.8 544.6,105.7 555.2,99.0 565.7,105.7 576.3,105.6 586.8,105.5 597.4,104.4 607.9,103.0 618.5,99.5 629.0,87.5 639.6,72.8 650.1,79.2 660.7,85.9 671.2,92.6 681.7,99.3 692.3,106.0 702.8,105.8 713.4,105.7 723.9,99.0 734.5,105.7 745.0,105.6 755.6,105.5 766.1,104.4 776.7,103.0 787.2,99.5 797.8,87.5 808.3,72.8 818.9,79.2 829.4,85.9 840.0,92.6 850.5,99.3 861.1,106.0 871.6,105.8 882.1,105.7 892.7,99.0 903.2,105.7 913.8,105.6 924.3,105.5 934.9,104.4 945.4,103.0 956.0,99.5 966.5,87.5 977.1,72.8 987.6,79.2 998.2,85.9 1008.7,92.6 1019.3,99.3 1029.8,106.0 1040.4,105.8 1050.9,105.7 1061.5,99.0 1072.0,105.7" fill="none" stroke="#f97316" stroke-width="2" opacity="0.92"/>
<text x="16" y="260.0" fill="#d6dde6" font-family="Segoe UI, Arial" font-size="13">Pitch</text>
<line x1="70" y1="255.0" x2="1076" y2="255.0" stroke="#33414d" stroke-width="1"/>
<line x1="70" y1="194" x2="70" y2="316" stroke="#33414d" stroke-width="1"/>
<polyline points="70.0,255.0 80.5,250.9 91.1,238.1 101.6,223.5 112.2,229.7 122.7,236.4 133.3,243.1 143.8,249.8 154.4,256.5 164.9,256.2 175.5,256.0 186.0,249.3 196.6,256.0 207.1,255.8 217.7,255.7 228.2,254.5 238.8,253.2 249.3,249.6 259.9,237.5 270.4,222.9 280.9,229.2 291.5,235.9 302.0,242.6 312.6,249.3 323.1,256.0 333.7,255.9 344.2,255.7 354.8,249.0 365.3,255.7 375.9,255.6 386.4,255.5 397.0,254.4 407.5,253.0 418.1,249.5 428.6,237.5 439.2,222.8 449.7,229.2 460.3,235.9 470.8,242.6 481.3,249.3 491.9,256.0 502.4,255.8 513.0,255.7 523.5,249.0 534.1,255.7 544.6,255.6 555.2,255.5 565.7,254.4 576.3,253.0 586.8,249.5 597.4,237.5 607.9,222.8 618.5,229.2 629.0,235.9 639.6,242.6 650.1,249.3 660.7,256.0 671.2,255.8 681.7,255.7 692.3,249.0 702.8,255.7 713.4,255.6 723.9,255.5 734.5,254.4 745.0,253.0 755.6,249.5 766.1,237.5 776.7,222.8 787.2,229.2 797.8,235.9 808.3,242.6 818.9,249.3 829.4,256.0 840.0,255.8 850.5,255.7 861.1,249.0 871.6,255.7 882.1,255.6 892.7,255.5 903.2,254.4 913.8,253.0 924.3,249.5 934.9,237.5 945.4,222.8 956.0,229.2 966.5,235.9 977.1,242.6 987.6,249.3 998.2,256.0 1008.7,255.8 1019.3,255.7 1029.8,249.0 1040.4,255.7 1050.9,255.6 1061.5,255.5 1072.0,254.4" fill="none" stroke="#38bdf8" stroke-width="2" opacity="0.92"/>
<polyline points="70.0,255.0 80.5,250.9 91.1,238.1 101.6,223.5 112.2,229.7 122.7,236.4 133.3,243.1 143.8,249.8 154.4,256.5 164.9,256.2 175.5,256.0 186.0,249.3 196.6,256.0 207.1,255.8 217.7,255.7 228.2,254.5 238.8,253.2 249.3,249.6 259.9,237.5 270.4,222.9 280.9,229.2 291.5,235.9 302.0,242.6 312.6,249.3 323.1,256.0 333.7,255.9 344.2,255.7 354.8,249.0 365.3,255.7 375.9,255.6 386.4,255.5 397.0,254.4 407.5,253.0 418.1,249.5 428.6,237.5 439.2,222.8 449.7,229.2 460.3,235.9 470.8,242.6 481.3,249.3 491.9,256.0 502.4,255.8 513.0,255.7 523.5,249.0 534.1,255.7 544.6,255.6 555.2,255.5 565.7,254.4 576.3,253.0 586.8,249.5 597.4,237.5 607.9,222.8 618.5,229.2 629.0,235.9 639.6,242.6 650.1,249.3 660.7,256.0 671.2,255.8 681.7,255.7 692.3,249.0 702.8,255.7 713.4,255.6 723.9,255.5 734.5,254.4 745.0,253.0 755.6,249.5 766.1,237.5 776.7,222.8 787.2,229.2 797.8,235.9 808.3,242.6 818.9,249.3 829.4,256.0 840.0,255.8 850.5,255.7 861.1,249.0 871.6,255.7 882.1,255.6 892.7,255.5 903.2,254.4 913.8,253.0 924.3,249.5 934.9,237.5 945.4,222.8 956.0,229.2 966.5,235.9 977.1,242.6 987.6,249.3 998.2,256.0 1008.7,255.8 1019.3,255.7 1029.8,249.0 1040.4,255.7 1050.9,255.6 1061.5,255.5 1072.0,254.4" fill="none" stroke="#f97316" stroke-width="2" opacity="0.92"/>
<text x="16" y="410.0" fill="#d6dde6" font-family="Segoe UI, Arial" font-size="13">Throttle</text>
<line x1="70" y1="405.0" x2="1076" y2="405.0" stroke="#33414d" stroke-width="1"/>
<line x1="70" y1="344" x2="70" y2="466" stroke="#33414d" stroke-width="1"/>
<polyline points="70.0,390.4 80.5,375.7 91.1,374.3 101.6,378.1 112.2,381.3 122.7,385.5 133.3,389.0 143.8,386.4 154.4,384.1 164.9,371.7 175.5,378.2 186.0,379.5 196.6,379.8 207.1,379.2 217.7,377.8 228.2,372.9 238.8,365.3 249.3,362.6 259.9,367.9 270.4,374.3 280.9,379.0 291.5,383.7 302.0,387.5 312.6,385.6 323.1,383.7 333.7,371.5 344.2,378.1 354.8,379.4 365.3,379.8 375.9,379.1 386.4,377.8 397.0,372.9 407.5,365.3 418.1,362.6 428.6,367.9 439.2,374.3 449.7,379.0 460.3,383.7 470.8,387.5 481.3,385.6 491.9,383.7 502.4,371.5 513.0,378.1 523.5,379.4 534.1,379.8 544.6,379.1 555.2,377.8 565.7,372.9 576.3,365.3 586.8,362.6 597.4,367.9 607.9,374.3 618.5,379.0 629.0,383.7 639.6,387.5 650.1,385.6 660.7,383.7 671.2,371.5 681.7,378.1 692.3,379.4 702.8,379.8 713.4,379.1 723.9,377.8 734.5,372.9 745.0,365.3 755.6,362.6 766.1,367.9 776.7,374.3 787.2,379.0 797.8,383.7 808.3,387.5 818.9,385.6 829.4,383.7 840.0,371.5 850.5,378.1 861.1,379.4 871.6,379.8 882.1,379.1 892.7,377.8 903.2,372.9 913.8,365.3 924.3,362.6 934.9,367.9 945.4,374.3 956.0,379.0 966.5,383.7 977.1,387.5 987.6,385.6 998.2,383.7 1008.7,371.5 1019.3,378.1 1029.8,379.4 1040.4,379.8 1050.9,379.1 1061.5,377.8 1072.0,372.9" fill="none" stroke="#38bdf8" stroke-width="2" opacity="0.92"/>
<polyline points="70.0,390.4 80.5,375.7 91.1,374.3 101.6,378.1 112.2,381.3 122.7,385.5 133.3,389.0 143.8,386.4 154.4,384.1 164.9,371.7 175.5,378.2 186.0,379.5 196.6,379.8 207.1,379.2 217.7,377.8 228.2,372.9 238.8,365.3 249.3,362.6 259.9,367.9 270.4,374.3 280.9,379.0 291.5,383.7 302.0,387.5 312.6,385.6 323.1,383.7 333.7,371.5 344.2,378.1 354.8,379.4 365.3,379.8 375.9,379.1 386.4,377.8 397.0,372.9 407.5,365.3 418.1,362.6 428.6,367.9 439.2,374.3 449.7,379.0 460.3,383.7 470.8,387.5 481.3,385.6 491.9,383.7 502.4,371.5 513.0,378.1 523.5,379.4 534.1,379.8 544.6,379.1 555.2,377.8 565.7,372.9 576.3,365.3 586.8,362.6 597.4,367.9 607.9,374.3 618.5,379.0 629.0,383.7 639.6,387.5 650.1,385.6 660.7,383.7 671.2,371.5 681.7,378.1 692.3,379.4 702.8,379.8 713.4,379.1 723.9,377.8 734.5,372.9 745.0,365.3 755.6,362.6 766.1,367.9 776.7,374.3 787.2,379.0 797.8,383.7 808.3,387.5 818.9,385.6 829.4,383.7 840.0,371.5 850.5,378.1 861.1,379.4 871.6,379.8 882.1,379.1 892.7,377.8 903.2,372.9 913.8,365.3 924.3,362.6 934.9,367.9 945.4,374.3 956.0,379.0 966.5,383.7 977.1,387.5 987.6,385.6 998.2,383.7 1008.7,371.5 1019.3,378.1 1029.8,379.4 1040.4,379.8 1050.9,379.1 1061.5,377.8 1072.0,372.9" fill="none" stroke="#f97316" stroke-width="2" opacity="0.92"/>
<text x="16" y="560.0" fill="#d6dde6" font-family="Segoe UI, Arial" font-size="13">Yaw</text>
<line x1="70" y1="555.0" x2="1076" y2="555.0" stroke="#33414d" stroke-width="1"/>
<line x1="70" y1="494" x2="70" y2="616" stroke="#33414d" stroke-width="1"/>
<polyline points="70.0,555.0 80.5,557.1 91.1,571.8 101.6,586.4 112.2,580.8 122.7,576.1 133.3,569.6 143.8,567.6 154.4,565.3 164.9,563.5 175.5,560.6 186.0,557.7 196.6,552.8 207.1,539.1 217.7,524.4 228.2,530.3 238.8,536.9 249.3,543.6 259.9,550.3 270.4,557.0 280.9,556.7 291.5,556.4 302.0,554.6 312.6,556.4 323.1,556.1 333.7,555.9 344.2,554.7 354.8,553.3 365.3,549.7 375.9,537.5 386.4,522.9 397.0,529.2 407.5,535.9 418.1,542.7 428.6,549.4 439.2,556.1 449.7,555.9 460.3,555.7 470.8,554.1 481.3,556.0 491.9,555.8 502.4,555.7 513.0,554.5 523.5,553.1 534.1,549.6 544.6,537.5 555.2,522.9 565.7,529.2 576.3,535.9 586.8,542.6 597.4,549.3 607.9,556.0 618.5,555.9 629.0,555.7 639.6,554.1 650.1,556.0 660.7,555.8 671.2,555.7 681.7,554.5 692.3,553.1 702.8,549.6 713.4,537.5 723.9,522.9 734.5,529.2 745.0,535.9 755.6,542.6 766.1,549.3 776.7,556.0 787.2,555.9 797.8,555.7 808.3,554.1 818.9,556.0 829.4,555.8 840.0,555.7 850.5,554.5 861.1,553.1 871.6,549.6 882.1,537.5 892.7,522.9 903.2,529.2 913.8,535.9 924.3,542.6 934.9,549.3 945.4,556.0 956.0,555.9 966.5,555.7 977.1,554.1 987.6,556.0 998.2,555.8 1008.7,555.7 1019.3,554.5 1029.8,553.1 1040.4,549.6 1050.9,537.5 1061.5,522.9 1072.0,529.2" fill="none" stroke="#38bdf8" stroke-width="2" opacity="0.92"/>
<polyline points="70.0,555.0 80.5,557.1 91.1,571.8 101.6,586.4 112.2,580.8 122.7,576.1 133.3,569.6 143.8,567.6 154.4,565.3 164.9,563.5 175.5,560.6 186.0,557.7 196.6,552.8 207.1,539.1 217.7,524.4 228.2,530.3 238.8,536.9 249.3,543.6 259.9,550.3 270.4,557.0 280.9,556.7 291.5,556.4 302.0,554.6 312.6,556.4 323.1,556.1 333.7,555.9 344.2,554.7 354.8,553.3 365.3,549.7 375.9,537.5 386.4,522.9 397.0,529.2 407.5,535.9 418.1,542.7 428.6,549.4 439.2,556.1 449.7,555.9 460.3,555.7 470.8,554.1 481.3,556.0 491.9,555.8 502.4,555.7 513.0,554.5 523.5,553.1 534.1,549.6 544.6,537.5 555.2,522.9 565.7,529.2 576.3,535.9 586.8,542.6 597.4,549.3 607.9,556.0 618.5,555.9 629.0,555.7 639.6,554.1 650.1,556.0 660.7,555.8 671.2,555.7 681.7,554.5 692.3,553.1 702.8,549.6 713.4,537.5 723.9,522.9 734.5,529.2 745.0,535.9 755.6,542.6 766.1,549.3 776.7,556.0 787.2,555.9 797.8,555.7 808.3,554.1 818.9,556.0 829.4,555.8 840.0,555.7 850.5,554.5 861.1,553.1 871.6,549.6 882.1,537.5 892.7,522.9 903.2,529.2 913.8,535.9 924.3,542.6 934.9,549.3 945.4,556.0 956.0,555.9 966.5,555.7 977.1,554.1 987.6,556.0 998.2,555.8 1008.7,555.7 1019.3,554.5 1029.8,553.1 1040.4,549.6 1050.9,537.5 1061.5,522.9 1072.0,529.2" fill="none" stroke="#f97316" stroke-width="2" opacity="0.92"/>
<text x="16" y="710.0" fill="#d6dde6" font-family="Segoe UI, Arial" font-size="13">Aux 1</text>
<line x1="70" y1="705.0" x2="1076" y2="705.0" stroke="#33414d" stroke-width="1"/>
<line x1="70" y1="644" x2="70" y2="766" stroke="#33414d" stroke-width="1"/>
<polyline points="70.0,719.6 80.5,734.3 91.1,729.0 101.6,724.7 112.2,718.0 122.7,721.3 133.3,718.4 143.8,715.9 154.4,712.5 164.9,709.2 175.5,703.7 186.0,689.6 196.6,674.9 207.1,680.7 217.7,687.2 228.2,693.9 238.8,700.6 249.3,707.3 259.9,706.9 270.4,706.6 280.9,699.8 291.5,706.6 302.0,706.3 312.6,706.0 323.1,704.8 333.7,703.4 344.2,699.8 354.8,687.6 365.3,672.9 375.9,679.3 386.4,686.0 397.0,692.7 407.5,699.4 418.1,706.1 428.6,705.9 439.2,705.7 449.7,699.0 460.3,705.7 470.8,705.6 481.3,705.5 491.9,704.4 502.4,703.0 513.0,699.6 523.5,687.5 534.1,672.8 544.6,679.2 555.2,685.9 565.7,692.6 576.3,699.3 586.8,706.0 597.4,705.8 607.9,705.7 618.5,699.0 629.0,705.7 639.6,705.6 650.1,705.5 660.7,704.4 671.2,703.0 681.7,699.5 692.3,687.5 702.8,672.8 713.4,679.2 723.9,685.9 734.5,692.6 745.0,699.3 755.6,706.0 766.1,705.8 776.7,705.7 787.2,699.0 797.8,705.7 808.3,705.6 818.9,705.5 829.4,704.4 840.0,703.0 850.5,699.5 861.1,687.5 871.6,672.8 882.1,679.2 892.7,685.9 903.2,692.6 913.8,699.3 924.3,706.0 934.9,705.8 945.4,705.7 956.0,699.0 966.5,705.7 977.1,705.6 987.6,705.5 998.2,704.4 1008.7,703.0 1019.3,699.5 1029.8,687.5 1040.4,672.8 1050.9,679.2 1061.5,685.9 1072.0,692.6" fill="none" stroke="#38bdf8" stroke-width="2" opacity="0.92"/>
<polyline points="70.0,719.6 80.5,734.3 91.1,729.0 101.6,724.7 112.2,718.0 122.7,721.3 133.3,718.4 143.8,715.9 154.4,712.5 164.9,709.2 175.5,703.7 186.0,689.6 196.6,674.9 207.1,680.7 217.7,687.2 228.2,693.9 238.8,700.6 249.3,707.3 259.9,706.9 270.4,706.6 280.9,699.8 291.5,706.6 302.0,706.3 312.6,706.0 323.1,704.8 333.7,703.4 344.2,699.8 354.8,687.6 365.3,672.9 375.9,679.3 386.4,686.0 397.0,692.7 407.5,699.4 418.1,706.1 428.6,705.9 439.2,705.7 449.7,699.0 460.3,705.7 470.8,705.6 481.3,705.5 491.9,704.4 502.4,703.0 513.0,699.6 523.5,687.5 534.1,672.8 544.6,679.2 555.2,685.9 565.7,692.6 576.3,699.3 586.8,706.0 597.4,705.8 607.9,705.7 618.5,699.0 629.0,705.7 639.6,705.6 650.1,705.5 660.7,704.4 671.2,703.0 681.7,699.5 692.3,687.5 702.8,672.8 713.4,679.2 723.9,685.9 734.5,692.6 745.0,699.3 755.6,706.0 766.1,705.8 776.7,705.7 787.2,699.0 797.8,705.7 808.3,705.6 818.9,705.5 829.4,704.4 840.0,703.0 850.5,699.5 861.1,687.5 871.6,672.8 882.1,679.2 892.7,685.9 903.2,692.6 913.8,699.3 924.3,706.0 934.9,705.8 945.4,705.7 956.0,699.0 966.5,705.7 977.1,705.6 987.6,705.5 998.2,704.4 1008.7,703.0 1019.3,699.5 1029.8,687.5 1040.4,672.8 1050.9,679.2 1061.5,685.9 1072.0,692.6" fill="none" stroke="#f97316" stroke-width="2" opacity="0.92"/>
<text x="16" y="860.0" fill="#d6dde6" font-family="Segoe UI, Arial" font-size="13">Aux 2</text>
<line x1="70" y1="855.0" x2="1076" y2="855.0" stroke="#33414d" stroke-width="1"/>
<line x1="70" y1="794" x2="70" y2="916" stroke="#33414d" stroke-width="1"/>
<polyline points="70.0,855.0 80.5,847.9 91.1,854.7 101.6,854.7 112.2,854.8 122.7,853.8 133.3,852.6 143.8,849.3 154.4,837.3 164.9,822.7 175.5,829.1 186.0,835.8 196.6,842.5 207.1,849.2 217.7,855.9 228.2,855.7 238.8,855.6 249.3,848.9 259.9,855.6 270.4,855.5 280.9,855.4 291.5,854.3 302.0,853.0 312.6,849.5 323.1,837.4 333.7,822.8 344.2,829.2 354.8,835.9 365.3,842.6 375.9,849.3 386.4,856.0 397.0,855.8 407.5,855.7 418.1,849.0 428.6,855.7 439.2,855.6 449.7,855.5 460.3,854.4 470.8,853.0 481.3,849.5 491.9,837.5 502.4,822.8 513.0,829.2 523.5,835.9 534.1,842.6 544.6,849.3 555.2,856.0 565.7,855.8 576.3,855.7 586.8,849.0 597.4,855.7 607.9,855.6 618.5,855.5 629.0,854.4 639.6,853.0 650.1,849.5 660.7,837.5 671.2,822.8 681.7,829.2 692.3,835.9 702.8,842.6 713.4,849.3 723.9,856.0 734.5,855.8 745.0,855.7 755.6,849.0 766.1,855.7 776.7,855.6 787.2,855.5 797.8,854.4 808.3,853.0 818.9,849.5 829.4,837.5 840.0,822.8 850.5,829.2 861.1,835.9 871.6,842.6 882.1,849.3 892.7,856.0 903.2,855.8 913.8,855.7 924.3,849.0 934.9,855.7 945.4,855.6 956.0,855.5 966.5,854.4 977.1,853.0 987.6,849.5 998.2,837.5 1008.7,822.8 1019.3,829.2 1029.8,835.9 1040.4,842.6 1050.9,849.3 1061.5,856.0 1072.0,855.8" fill="none" stroke="#38bdf8" stroke-width="2" opacity="0.92"/>
<polyline points="70.0,855.0 80.5,847.9 91.1,854.7 101.6,854.7 112.2,854.8 122.7,853.8 133.3,852.6 143.8,849.3 154.4,837.3 164.9,822.7 175.5,829.1 186.0,835.8 196.6,842.5 207.1,849.2 217.7,855.9 228.2,855.7 238.8,855.6 249.3,848.9 259.9,855.6 270.4,855.5 280.9,855.4 291.5,854.3 302.0,853.0 312.6,849.5 323.1,837.4 333.7,822.8 344.2,829.2 354.8,835.9 365.3,842.6 375.9,849.3 386.4,856.0 397.0,855.8 407.5,855.7 418.1,849.0 428.6,855.7 439.2,855.6 449.7,855.5 460.3,854.4 470.8,853.0 481.3,849.5 491.9,837.5 502.4,822.8 513.0,829.2 523.5,835.9 534.1,842.6 544.6,849.3 555.2,856.0 565.7,855.8 576.3,855.7 586.8,849.0 597.4,855.7 607.9,855.6 618.5,855.5 629.0,854.4 639.6,853.0 650.1,849.5 660.7,837.5 671.2,822.8 681.7,829.2 692.3,835.9 702.8,842.6 713.4,849.3 723.9,856.0 734.5,855.8 745.0,855.7 755.6,849.0 766.1,855.7 776.7,855.6 787.2,855.5 797.8,854.4 808.3,853.0 818.9,849.5 829.4,837.5 840.0,822.8 850.5,829.2 861.1,835.9 871.6,842.6 882.1,849.3 892.7,856.0 903.2,855.8 913.8,855.7 924.3,849.0 934.9,855.7 945.4,855.6 956.0,855.5 966.5,854.4 977.1,853.0 987.6,849.5 998.2,837.5 1008.7,822.8 1019.3,829.2 1029.8,835.9 1040.4,842.6 1050.9,849.3 1061.5,856.0 1072.0,855.8" fill="none" stroke="#f97316" stroke-width="2" opacity="0.92"/>
<text x="780" y="28" fill="#38bdf8" font-family="Segoe UI, Arial" font-size="13">measured bridge final</text>
<text x="930" y="28" fill="#f97316" font-family="Segoe UI, Arial" font-size="13">stateful intended</text>
</svg>