<svg xmlns="http://www.w3.org/2000/svg" width="1100" height="974" viewBox="0 0 1100 974">
<rect width="100%" height="100%" fill="#0f1419"/>
<text x="24" y="28" fill="#f4f7fb" font-family="Segoe UI, Arial" font-size="18">Sine measured output vs stateful intended output</text>
<text x="16" y="110.0" fill="#d6dde6" font-family="Segoe UI, Arial" font-size="13">Roll</text>
<line x1="70" y1="105.0" x2="1076" y2="105.0" stroke="#33414d" stroke-width="1"/>
<line x1="70" y1="44" x2="70" y2="166" stroke="#33414d" stroke-width="1"/>
<polyline points="70.0,105.0 75.6,104.5 81.2,103.1 86.8,101.2 92.4,98.9 98.0,96.2 103.6,93.4 109.2,90.3 114.8,87.2 120.4,84.0 126.0,80.7 131.6,77.4 137.2,74.1 142.8,70.9 148.4,67.7 154.0,64.8 159.6,62.0 165.2,59.5 170.8,57.3 176.4,55.5 182.0,54.0 187.6,53.0 193.2,52.4 198.7,52.2 204.3,52.5 209.9,53.1 215.5,54.2 221.1,55.6 226.7,57.4 232.3,59.5 237.9,61.8 243.5,64.3 249.1,66.9 254.7,69.7 260.3,72.6 265.9,75.4 271.5,78.3 277.1,81.2 282.7,84.0 288.3,86.8 293.9,89.5 299.5,92.2 305.1,94.7 310.7,97.3 316.3,99.7 321.9,101.6 327.5,103.6 333.1,105.9 338.7,108.5 344.3,111.3 349.9,114.2 355.5,117.2 361.1,120.3 366.7,123.6 372.3,126.8 377.9,130.1 383.5,133.4 389.1,136.7 394.7,139.9 400.3,143.0 405.9,146.0 411.5,148.7 417.1,151.1 422.7,153.2 428.3,154.9 433.9,156.3 439.5,157.2 445.1,157.7 450.6,157.8 456.2,157.4 461.8,156.6 467.4,155.5 473.0,153.9 478.6,152.1 484.2,150.0 489.8,147.6 495.4,145.1 501.0,142.4 506.6,139.6 512.2,136.7 517.8,133.8 523.4,131.0 529.0,128.1 534.6,125.3 540.2,122.5 545.8,119.8 551.4,117.2 557.0,114.6 562.6,112.1 568.2,109.7 573.8,108.0 579.4,105.9 585.0,103.5 590.6,100.8 596.2,98.0 601.8,95.1 607.4,92.0 613.0,88.9 618.6,85.6 624.2,82.4 629.8,79.0 635.4,75.7 641.0,72.5 646.6,69.3 652.2,66.2 657.8,63.3 663.4,60.7 669.0,58.4 674.6,56.4 680.2,54.7 685.8,53.5 691.4,52.6 696.9,52.3 702.5,52.3 708.1,52.8 713.7,53.6 719.3,54.9 724.9,56.5 730.5,58.4 736.1,60.6 741.7,63.0 747.3,65.6 752.9,68.3 758.5,71.1 764.1,74.0 769.7,76.9 775.3,79.8 780.9,82.6 786.5,85.4 792.1,88.2 797.7,90.8 803.3,93.4 808.9,96.0 814.5,98.5 820.1,100.8 825.7,102.5 831.3,104.7 836.9,107.2 842.5,109.9 848.1,112.7 853.7,115.7 859.3,118.8 864.9,121.9 870.5,125.2 876.1,128.5 881.7,131.8 887.3,135.1 892.9,138.3 898.5,141.5 904.1,144.5 909.7,147.3 915.3,149.9 920.9,152.2 926.5,154.1 932.1,155.6 937.7,156.8 943.3,157.5 948.8,157.8 954.4,157.6 960.0,157.1 965.6,156.1 971.2,154.7 976.8,153.1 982.4,151.1 988.0,148.8 993.6,146.4 999.2,143.7 1004.8,141.0 1010.4,138.2 1016.0,135.3 1021.6,132.4 1027.2,129.5 1032.8,126.7 1038.4,123.9 1044.0,121.2 1049.6,118.5 1055.2,115.9 1060.8,113.4 1066.4,110.9 1072.0,108.8" fill="none" stroke="#38bdf8" stroke-width="2" opacity="0.92"/>
<polyline points="70.0,105.0 75.6,104.5 81.2,103.1 86.8,101.2 92.4,98.9 98.0,96.2 103.6,93.4 109.2,90.3 114.8,87.2 120.4,84.0 126.0,80.7 131.6,77.4 137.2,74.1 142.8,70.9 148.4,67.7 154.0,64.8 159.6,62.0 165.2,59.5 170.8,57.3 176.4,55.5 182.0,54.0 187.6,53.0 193.2,52.4 198.7,52.2 204.3,52.5 209.9,53.1 215.5,54.2 221.1,55.6 226.7,57.4 232.3,59.5 237.9,61.8 243.5,64.3 249.1,66.9 254.7,69.7 260.3,72.6 265.9,75.4 271.5,78.3 277.1,81.2 282.7,84.0 288.3,86.8 293.9,89.5 299.5,92.2 305.1,94.7 310.7,97.3 316.3,99.7 321.9,101.6 327.5,103.6 333.1,105.9 338.7,108.5 344.3,111.3 349.9,114.2 355.5,117.2 361.1,120.3 366.7,123.6 372.3,126.8 377.9,130.1 383.5,133.4 389.1,136.7 394.7,139.9 400.3,143.0 405.9,146.0 411.5,148.7 417.1,151.1 422.7,153.2 428.3,154.9 433.9,156.3 439.5,157.2 445.1,157.7 450.6,157.8 456.2,157.4 461.8,156.6 467.4,155.5 473.0,153.9 478.6,152.1 484.2,150.0 489.8,147.6 495.4,145.1 501.0,142.4 506.6,139.6 512.2,136.7 517.8,133.8 523.4,131.0 529.0,128.1 534.6,125.3 540.2,122.5 545.8,119.8 551.4,117.2 557.0,114.6 562.6,112.1 568.2,109.7 573.8,108.0 579.4,105.9 585.0,103.5 590.6,100.8 596.2,98.0 601.8,95.1 607.4,92.0 613.0,88.9 618.6,85.6 624.2,82.4 629.8,79.0 635.4,75.7 641.0,72.5 646.6,69.3 652.2,66.2 657.8,63.3 663.4,60.7 669.0,58.4 674.6,56.4 680.2,54.7 685.8,53.5 691.4,52.6 696.9,52.3 702.5,52.3 708.1,52.8 713.7,53.6 719.3,54.9 724.9,56.5 730.5,58.4 736.1,60.6 741.7,63.0 747.3,65.6 752.9,68.3 758.5,71.1 764.1,74.0 769.7,76.9 775.3,79.8 780.9,82.6 786.5,85.4 792.1,88.2 797.7,90.8 803.3,93.4 808.9,96.0 814.5,98.5 820.1,100.8 825.7,102.5 831.3,104.7 836.9,107.2 842.5,109.9 848.1,112.7 853.7,115.7 859.3,118.8 864.9,121.9 870.5,125.2 876.1,128.5 881.7,131.8 887.3,135.1 892.9,138.3 898.5,141.5 904.1,144.5 909.7,147.3 915.3,149.9 920.9,152.2 926.5,154.1 932.1,155.6 937.7,156.8 943.3,157.5 948.8,157.8 954.4,157.6 960.0,157.1 965.6,156.1 971.2,154.7 976.8,153.1 982.4,151.1 988.0,148.8 993.6,146.4 999.2,143.7 1004.8,141.0 1010.4,138.2 1016.0,135.3 1021.6,132.4 1027.2,129.5 1032.8,126.7 1038.4,123.9 1044.0,121.2 1049.6,118.5 1055.2,115.9 1060.8,113.4 1066.4,110.9 1072.0,108.8" fill="none" stroke="#f97316" stroke-width="2" opacity="0.92"/>
<text x="16" y="260.0" fill="#d6dde6" font-family="Segoe UI, Arial" font-size="13">Pitch</text>
<line x1="70" y1="255.0" x2="1076" y2="255.0" stroke="#33414d" stroke-width="1"/>
<line x1="70" y1="194" x2="70" y2="316" stroke="#33414d" stroke-width="1"/>
<polyline points="70.0,244.3 75.6,237.0 81.2,231.5 86.8,227.1 92.4,223.3 98.0,219.8 103.6,216.6 109.2,213.6 114.8,210.9 120.4,208.6 126.0,206.6 131.6,205.0 137.2,203.8 142.8,203.2 148.4,202.9 154.0,203.2 159.6,203.9 165.2,205.0 170.8,206.5 176.4,208.4 182.0,210.5 187.6,213.0 193.2,215.6 198.7,218.3 204.3,221.2 209.9,224.1 215.5,227.0 221.1,229.9 226.7,232.7 232.3,235.5 237.9,238.2 243.5,240.7 249.1,243.2 254.7,245.6 260.3,247.9 265.9,250.1 271.5,251.8 277.1,253.6 282.7,255.7 288.3,257.9 293.9,260.4 299.5,263.0 305.1,265.7 310.7,268.6 316.3,271.6 321.9,274.8 327.5,278.0 333.1,281.3 338.7,284.6 344.3,287.9 349.9,291.2 355.5,294.2 361.1,297.1 366.7,299.7 372.3,302.0 377.9,303.9 383.5,305.3 389.1,306.4 394.7,306.9 400.3,307.0 405.9,306.7 411.5,305.9 417.1,304.6 422.7,303.0 428.3,301.1 433.9,298.9 439.5,296.4 445.1,293.7 450.6,291.0 456.2,288.1 461.8,285.2 467.4,282.3 473.0,279.4 478.6,276.6 484.2,273.8 489.8,271.2 495.4,268.6 501.0,266.2 506.6,263.8 512.2,261.5 517.8,259.3 523.4,257.8 529.0,255.9 534.6,253.8 540.2,251.5 545.8,249.0 551.4,246.3 557.0,243.6 562.6,240.6 568.2,237.6 573.8,234.4 579.4,231.2 585.0,227.9 590.6,224.5 596.2,221.2 601.8,218.0 607.4,215.0 613.0,212.2 618.6,209.7 624.2,207.5 629.8,205.7 635.4,204.4 641.0,203.4 646.6,203.0 652.2,203.0 657.8,203.5 663.4,204.4 669.0,205.7 674.6,207.4 680.2,209.4 685.8,211.7 691.4,214.3 696.9,216.9 702.5,219.8 708.1,222.6 713.7,225.6 719.3,228.5 724.9,231.3 730.5,234.1 736.1,236.8 741.7,239.5 747.3,242.0 752.9,244.4 758.5,246.7 764.1,249.0 769.7,251.1 775.3,252.7 780.9,254.6 786.5,256.8 792.1,259.1 797.7,261.7 803.3,264.3 808.9,267.2 814.5,270.1 820.1,273.2 825.7,276.4 831.3,279.7 836.9,283.0 842.5,286.3 848.1,289.6 853.7,292.7 859.3,295.7 864.9,298.4 870.5,300.9 876.1,303.0 881.7,304.7 887.3,305.9 892.9,306.7 898.5,307.0 904.1,306.9 909.7,306.3 915.3,305.3 920.9,303.9 926.5,302.1 932.1,300.0 937.7,297.7 943.3,295.1 948.8,292.4 954.4,289.5 960.0,286.6 965.6,283.7 971.2,280.8 976.8,278.0 982.4,275.2 988.0,272.5 993.6,269.9 999.2,267.4 1004.8,265.0 1010.4,262.7 1016.0,260.4 1021.6,258.5 1027.2,256.9 1032.8,254.9 1038.4,252.6 1044.0,250.2 1049.6,247.7 1055.2,245.0 1060.8,242.1 1066.4,239.1 1072.0,236.0" fill="none" stroke="#38bdf8" stroke-width="2" opacity="0.92"/>
<polyline points="70.0,244.3 75.6,237.0 81.2,231.5 86.8,227.1 92.4,223.3 98.0,219.8 103.6,216.6 109.2,213.6 114.8,210.9 120.4,208.6 126.0,206.6 131.6,205.0 137.2,203.8 142.8,203.2 148.4,202.9 154.0,203.2 159.6,203.9 165.2,205.0 170.8,206.5 176.4,208.4 182.0,210.5 187.6,213.0 193.2,215.6 198.7,218.3 204.3,221.2 209.9,224.1 215.5,227.0 221.1,229.9 226.7,232.7 232.3,235.5 237.9,238.2 243.5,240.7 249.1,243.2 254.7,245.6 260.3,247.9 265.9,250.1 271.5,251.8 277.1,253.6 282.7,255.7 288.3,257.9 293.9,260.4 299.5,263.0 305.1,265.7 310.7,268.6 316.3,271.6 321.9,274.8 327.5,278.0 333.1,281.3 338.7,284.6 344.3,287.9 349.9,291.2 355.5,294.2 361.1,297.1 366.7,299.7 372.3,302.0 377.9,303.9 383.5,305.3 389.1,306.4 394.7,306.9 400.3,307.0 405.9,306.7 411.5,305.9 417.1,304.6 422.7,303.0 428.3,301.1 433.9,298.9 439.5,296.4 445.1,293.7 450.6,291.0 456.2,288.1 461.8,285.2 467.4,282.3 473.0,279.4 478.6,276.6 484.2,273.8 489.8,271.2 495.4,268.6 501.0,266.2 506.6,263.8 512.2,261.5 517.8,259.3 523.4,257.8 529.0,255.9 534.6,253.8 540.2,251.5 545.8,249.0 551.4,246.3 557.0,243.6 562.6,240.6 568.2,237.6 573.8,234.4 579.4,231.2 585.0,227.9 590.6,224.5 596.2,221.2 601.8,218.0 607.4,215.0 613.0,212.2 618.6,209.7 624.2,207.5 629.8,205.7 635.4,204.4 641.0,203.4 646.6,203.0 652.2,203.0 657.8,203.5 663.4,204.4 669.0,205.7 674.6,207.4 680.2,209.4 685.8,211.7 691.4,214.3 696.9,216.9 702.5,219.8 708.1,222.6 713.7,225.6 719.3,228.5 724.9,231.3 730.5,234.1 736.1,236.8 741.7,239.5 747.3,242.0 752.9,244.4 758.5,246.7 764.1,249.0 769.7,251.1 775.3,252.7 780.9,254.6 786.5,256.8 792.1,259.1 797.7,261.7 803.3,264.3 808.9,267.2 814.5,270.1 820.1,273.2 825.7,276.4 831.3,279.7 836.9,283.0 842.5,286.3 848.1,289.6 853.7,292.7 859.3,295.7 864.9,298.4 870.5,300.9 876.1,303.0 881.7,304.7 887.3,305.9 892.9,306.7 898.5,307.0 904.1,306.9 909.7,306.3 915.3,305.3 920.9,303.9 926.5,302.1 932.1,300.0 937.7,297.7 943.3,295.1 948.8,292.4 954.4,289.5 960.0,286.6 965.6,283.7 971.2,280.8 976.8,278.0 982.4,275.2 988.0,272.5 993.6,269.9 999.2,267.4 1004.8,265.0 1010.4,262.7 1016.0,260.4 1021.6,258.5 1027.2,256.9 1032.8,254.9 1038.4,252.6 1044.0,250.2 1049.6,247.7 1055.2,245.0 1060.8,242.1 1066.4,239.1 1072.0,236.0" fill="none" stroke="#f97316" stroke-width="2" opacity="0.92"/>
<text x="16" y="410.0" fill="#d6dde6" font-family="Segoe UI, Arial" font-size="13">Throttle</text>
<line x1="70" y1="405.0" x2="1076" y2="405.0" stroke="#33414d" stroke-width="1"/>
<line x1="70" y1="344" x2="70" y2="466" stroke="#33414d" stroke-width="1"/>
<polyline points="70.0,363.7 75.6,353.4 81.2,350.3 86.8,349.0 92.4,348.2 98.0,347.6 103.6,347.2 109.2,347.0 114.8,347.0 120.4,347.1 126.0,347.4 131.6,347.9 137.2,348.5 142.8,349.2 148.4,350.1 154.0,351.2 159.6,352.4 165.2,353.6 170.8,355.1 176.4,356.6 182.0,358.1 187.6,359.8 193.2,361.6 198.7,363.4 204.3,365.2 209.9,367.1 215.5,369.0 221.1,370.9 226.7,372.9 232.3,374.8 237.9,376.7 243.5,378.6 249.1,380.5 254.7,382.4 260.3,384.2 265.9,386.0 271.5,387.7 277.1,389.4 282.7,391.0 288.3,392.5 293.9,393.9 299.5,395.3 305.1,396.6 310.7,397.8 316.3,398.9 321.9,399.9 327.5,400.8 333.1,401.6 338.7,402.2 344.3,402.8 349.9,403.2 355.5,403.5 361.1,403.7 366.7,403.8 372.3,403.7 377.9,403.5 383.5,403.2 389.1,402.8 394.7,402.2 400.3,401.5 405.9,400.7 411.5,399.8 417.1,398.8 422.7,397.6 428.3,396.4 433.9,395.0 439.5,393.6 445.1,392.1 450.6,390.5 456.2,388.8 461.8,387.1 467.4,385.2 473.0,383.4 478.6,381.5 484.2,379.5 489.8,377.6 495.4,375.6 501.0,373.6 506.6,371.6 512.2,369.6 517.8,367.6 523.4,365.6 529.0,363.7 534.6,361.9 540.2,360.1 545.8,358.3 551.4,356.7 557.0,355.1 562.6,353.7 568.2,352.4 573.8,351.2 579.4,350.1 585.0,349.2 590.6,348.5 596.2,347.8 601.8,347.4 607.4,347.1 613.0,347.0 618.6,347.0 624.2,347.2 629.8,347.6 635.4,348.2 641.0,348.8 646.6,349.7 652.2,350.6 657.8,351.8 663.4,353.0 669.0,354.3 674.6,355.8 680.2,357.3 685.8,359.0 691.4,360.7 696.9,362.5 702.5,364.3 708.1,366.1 713.7,368.0 719.3,370.0 724.9,371.9 730.5,373.8 736.1,375.8 741.7,377.7 747.3,379.6 752.9,381.5 758.5,383.3 764.1,385.1 769.7,386.8 775.3,388.5 780.9,390.2 786.5,391.7 792.1,393.2 797.7,394.6 803.3,396.0 808.9,397.2 814.5,398.4 820.1,399.4 825.7,400.3 831.3,401.2 836.9,401.9 842.5,402.5 848.1,403.0 853.7,403.4 859.3,403.6 864.9,403.8 870.5,403.8 876.1,403.6 881.7,403.4 887.3,403.0 892.9,402.5 898.5,401.9 904.1,401.1 909.7,400.3 915.3,399.3 920.9,398.2 926.5,397.0 932.1,395.7 937.7,394.3 943.3,392.9 948.8,391.3 954.4,389.6 960.0,387.9 965.6,386.2 971.2,384.3 976.8,382.4 982.4,380.5 988.0,378.6 993.6,376.6 999.2,374.6 1004.8,372.6 1010.4,370.6 1016.0,368.6 1021.6,366.6 1027.2,364.7 1032.8,362.8 1038.4,360.9 1044.0,359.2 1049.6,357.5 1055.2,355.9 1060.8,354.4 1066.4,353.0 1072.0,351.8" fill="none" stroke="#38bdf8" stroke-width="2" opacity="0.92"/>
<polyline points="70.0,363.7 75.6,353.4 81.2,350.3 86.8,349.0 92.4,348.2 98.0,347.6 103.6,347.2 109.2,347.0 114.8,347.0 120.4,347.1 126.0,347.4 131.6,347.9 137.2,348.5 142.8,349.2 148.4,350.1 154.0,351.2 159.6,352.4 165.2,353.6 170.8,355.1 176.4,356.6 182.0,358.1 187.6,359.8 193.2,361.6 198.7,363.4 204.3,365.2 209.9,367.1 215.5,369.0 221.1,370.9 226.7,372.9 232.3,374.8 237.9,376.7 243.5,378.6 249.1,380.5 254.7,382.4 260.3,384.2 265.9,386.0 271.5,387.7 277.1,389.4 282.7,391.0 288.3,392.5 293.9,393.9 299.5,395.3 305.1,396.6 310.7,397.8 316.3,398.9 321.9,399.9 327.5,400.8 333.1,401.6 338.7,402.2 344.3,402.8 349.9,403.2 355.5,403.5 361.1,403.7 366.7,403.8 372.3,403.7 377.9,403.5 383.5,403.2 389.1,402.8 394.7,402.2 400.3,401.5 405.9,400.7 411.5,399.8 417.1,398.8 422.7,397.6 428.3,396.4 433.9,395.0 439.5,393.6 445.1,392.1 450.6,390.5 456.2,388.8 461.8,387.1 467.4,385.2 473.0,383.4 478.6,381.5 484.2,379.5 489.8,377.6 495.4,375.6 501.0,373.6 506.6,371.6 512.2,369.6 517.8,367.6 523.4,365.6 529.0,363.7 534.6,361.9 540.2,360.1 545.8,358.3 551.4,356.7 557.0,355.1 562.6,353.7 568.2,352.4 573.8,351.2 579.4,350.1 585.0,349.2 590.6,348.5 596.2,347.8 601.8,347.4 607.4,347.1 613.0,347.0 618.6,347.0 624.2,347.2 629.8,347.6 635.4,348.2 641.0,348.8 646.6,349.7 652.2,350.6 657.8,351.8 663.4,353.0 669.0,354.3 674.6,355.8 680.2,357.3 685.8,359.0 691.4,360.7 696.9,362.5 702.5,364.3 708.1,366.1 713.7,368.0 719.3,370.0 724.9,371.9 730.5,373.8 736.1,375.8 741.7,377.7 747.3,379.6 752.9,381.5 758.5,383.3 764.1,385.1 769.7,386.8 775.3,388.5 780.9,390.2 786.5,391.7 792.1,393.2 797.7,394.6 803.3,396.0 808.9,397.2 814.5,398.4 820.1,399.4 825.7,400.3 831.3,401.2 836.9,401.9 842.5,402.5 848.1,403.0 853.7,403.4 859.3,403.6 864.9,403.8 870.5,403.8 876.1,403.6 881.7,403.4 887.3,403.0 892.9,402.5 898.5,401.9 904.1,401.1 909.7,400.3 915.3,399.3 920.9,398.2 926.5,397.0 932.1,395.7 937.7,394.3 943.3,392.9 948.8,391.3 954.4,389.6 960.0,387.9 965.6,386.2 971.2,384.3 976.8,382.4 982.4,380.5 988.0,378.6 993.6,376.6 999.2,374.6 1004.8,372.6 1010.4,370.6 1016.0,368.6 1021.6,366.6 1027.2,364.7 1032.8,362.8 1038.4,360.9 1044.0,359.2 1049.6,357.5 1055.2,355.9 1060.8,354.4 1066.4,353.0 1072.0,351.8" fill="none" stroke="#f97316" stroke-width="2" opacity="0.92"/>
<text x="16" y="560.0" fill="#d6dde6" font-family="Segoe UI, Arial" font-size="13">Yaw</text>
<line x1="70" y1="555.0" x2="1076" y2="555.0" stroke="#33414d" stroke-width="1"/>
<line x1="70" y1="494" x2="70" y2="616" stroke="#33414d" stroke-width="1"/>
<polyline points="70.0,527.5 75.6,515.1 81.2,509.9 86.8,508.2 92.4,508.3 98.0,509.5 103.6,511.3 109.2,513.6 114.8,516.1 120.4,518.9 126.0,521.7 131.6,524.6 137.2,527.5 142.8,530.4 148.4,533.1 154.0,535.7 159.6,538.2 165.2,540.5 170.8,542.7 176.4,544.8 182.0,546.7 187.6,548.5 193.2,550.1 198.7,551.3 204.3,552.7 209.9,554.3 215.5,556.0 221.1,557.9 226.7,559.9 232.3,562.2 237.9,564.7 243.5,567.4 249.1,570.3 254.7,573.5 260.3,576.9 265.9,580.4 271.5,583.9 277.1,587.5 282.7,590.9 288.3,594.1 293.9,597.1 299.5,599.7 305.1,601.8 310.7,603.5 316.3,604.6 321.9,605.2 327.5,605.3 333.1,604.8 338.7,603.8 344.3,602.4 349.9,600.6 355.5,598.4 361.1,595.9 366.7,593.3 372.3,590.5 377.9,587.6 383.5,584.7 389.1,581.8 394.7,579.0 400.3,576.2 405.9,573.6 411.5,571.2 417.1,568.9 422.7,566.7 428.3,564.7 433.9,562.8 439.5,561.1 445.1,559.5 450.6,558.3 456.2,556.9 461.8,555.3 467.4,553.5 473.0,551.6 478.6,549.5 484.2,547.2 489.8,544.7 495.4,541.9 501.0,538.9 506.6,535.7 512.2,532.3 517.8,528.7 523.4,525.2 529.0,521.7 534.6,518.3 540.2,515.1 545.8,512.2 551.4,509.8 557.0,507.7 562.6,506.2 568.2,505.2 573.8,504.7 579.4,504.8 585.0,505.4 590.6,506.5 596.2,508.0 601.8,509.9 607.4,512.2 613.0,514.7 618.6,517.4 624.2,520.2 629.8,523.1 635.4,526.1 641.0,528.9 646.6,531.7 652.2,534.4 657.8,537.0 663.4,539.4 669.0,541.7 674.6,543.8 680.2,545.8 685.8,547.6 691.4,549.4 696.9,550.8 702.5,552.1 708.1,553.5 713.7,555.2 719.3,556.9 724.9,558.9 730.5,561.1 736.1,563.4 741.7,566.0 747.3,568.8 752.9,571.9 758.5,575.2 764.1,578.6 769.7,582.1 775.3,585.7 780.9,589.2 786.5,592.5 792.1,595.6 797.7,598.4 803.3,600.8 808.9,602.7 814.5,604.1 820.1,605.0 825.7,605.3 831.3,605.1 836.9,604.4 842.5,603.2 848.1,601.5 853.7,599.5 859.3,597.2 864.9,594.6 870.5,591.9 876.1,589.0 881.7,586.1 887.3,583.2 892.9,580.4 898.5,577.6 904.1,574.9 909.7,572.4 915.3,570.0 920.9,567.8 926.5,565.7 932.1,563.8 937.7,561.9 943.3,560.2 948.8,558.9 954.4,557.6 960.0,556.1 965.6,554.4 971.2,552.6 976.8,550.6 982.4,548.4 988.0,546.0 993.6,543.3 999.2,540.4 1004.8,537.3 1010.4,534.0 1016.0,530.5 1021.6,527.0 1027.2,523.4 1032.8,519.9 1038.4,516.7 1044.0,513.6 1049.6,510.9 1055.2,508.7 1060.8,506.9 1066.4,505.6 1072.0,504.9" fill="none" stroke="#38bdf8" stroke-width="2" opacity="0.92"/>
<polyline points="70.0,527.5 75.6,515.1 81.2,509.9 86.8,508.2 92.4,508.3 98.0,509.5 103.6,511.3 109.2,513.6 114.8,516.1 120.4,518.9 126.0,521.7 131.6,524.6 137.2,527.5 142.8,530.4 148.4,533.1 154.0,535.7 159.6,538.2 165.2,540.5 170.8,542.7 176.4,544.8 182.0,546.7 187.6,548.5 193.2,550.1 198.7,551.3 204.3,552.7 209.9,554.3 215.5,556.0 221.1,557.9 226.7,559.9 232.3,562.2 237.9,564.7 243.5,567.4 249.1,570.3 254.7,573.5 260.3,576.9 265.9,580.4 271.5,583.9 277.1,587.5 282.7,590.9 288.3,594.1 293.9,597.1 299.5,599.7 305.1,601.8 310.7,603.5 316.3,604.6 321.9,605.2 327.5,605.3 333.1,604.8 338.7,603.8 344.3,602.4 349.9,600.6 355.5,598.4 361.1,595.9 366.7,593.3 372.3,590.5 377.9,587.6 383.5,584.7 389.1,581.8 394.7,579.0 400.3,576.2 405.9,573.6 411.5,571.2 417.1,568.9 422.7,566.7 428.3,564.7 433.9,562.8 439.5,561.1 445.1,559.6 450.6,558.3 456.2,556.9 461.8,555.3 467.4,553.5 473.0,551.6 478.6,549.5 484.2,547.2 489.8,544.7 495.4,541.9 501.0,538.9 506.6,535.7 512.2,532.3 517.8,528.7 523.4,525.2 529.0,521.7 534.6,518.3 540.2,515.1 545.8,512.2 551.4,509.8 557.0,507.7 562.6,506.2 568.2,505.2 573.8,504.7 579.4,504.8 585.0,505.4 590.6,506.5 596.2,508.0 601.8,509.9 607.4,512.2 613.0,514.7 618.6,517.4 624.2,520.2 629.8,523.2 635.4,526.1 641.0,528.9 646.6,531.7 652.2,534.4 657.8,537.0 663.4,539.4 669.0,541.7 674.6,543.8 680.2,545.8 685.8,547.6 691.4,549.4 696.9,550.8 702.5,552.1 708.1,553.5 713.7,555.2 719.3,556.9 724.9,558.9 730.5,561.1 736.1,563.4 741.7,566.0 747.3,568.8 752.9,571.9 758.5,575.2 764.1,578.6 769.7,582.1 775.3,585.7 780.9,589.2 786.5,592.5 792.1,595.7 797.7,598.4 803.3,600.8 808.9,602.7 814.5,604.1 820.1,605.0 825.7,605.3 831.3,605.1 836.9,604.4 842.5,603.2 848.1,601.5 853.7,599.5 859.3,597.2 864.9,594.6 870.5,591.9 876.1,589.0 881.7,586.1 887.3,583.2 892.9,580.4 898.5,577.6 904.1,574.9 909.7,572.4 915.3,570.0 920.9,567.8 926.5,565.7 932.1,563.8 937.7,561.9 943.3,560.2 948.8,558.9 954.4,557.6 960.0,556.1 965.6,554.4 971.2,552.6 976.8,550.6 982.4,548.4 988.0,546.0 993.6,543.3 999.2,540.4 1004.8,537.3 1010.4,534.0 1016.0,530.5 1021.6,527.0 1027.2,523.4 1032.8,519.9 1038.4,516.7 1044.0,513.6 1049.6,510.9 1055.2,508.7 1060.8,506.9 1066.4,505.6 1072.0,504.9" fill="none" stroke="#f97316" stroke-width="2" opacity="0.92"/>
<text x="16" y="710.0" fill="#d6dde6" font-family="Segoe UI, Arial" font-size="13">Aux 1</text>
<line x1="70" y1="705.0" x2="1076" y2="705.0" stroke="#33414d" stroke-width="1"/>
<line x1="70" y1="644" x2="70" y2="766" stroke="#33414d" stroke-width="1"/>
<polyline points="70.0,705.0 75.6,705.6 81.2,707.3 86.8,709.6 92.4,712.5 98.0,715.6 103.6,719.0 109.2,722.4 114.8,725.8 120.4,729.3 126.0,732.7 131.6,736.1 137.2,739.3 142.8,742.4 148.4,745.3 154.0,748.0 159.6,750.5 165.2,752.7 170.8,754.7 176.4,756.2 182.0,757.5 187.6,758.4 193.2,758.9 198.7,759.1 204.3,758.8 209.9,758.2 215.5,757.3 221.1,756.0 226.7,754.5 232.3,752.6 237.9,750.6 243.5,748.3 249.1,745.8 254.7,743.2 260.3,740.4 265.9,737.6 271.5,734.7 277.1,731.8 282.7,728.8 288.3,725.8 293.9,722.8 299.5,719.9 305.1,717.0 310.7,714.0 316.3,711.2 321.9,709.0 327.5,706.6 333.1,703.8 338.7,700.6 344.3,697.3 349.9,693.9 355.5,690.4 361.1,686.8 366.7,683.3 372.3,679.9 377.9,676.5 383.5,673.1 389.1,669.9 394.7,666.9 400.3,664.0 405.9,661.3 411.5,658.9 417.1,656.8 422.7,654.9 428.3,653.4 433.9,652.2 439.5,651.4 445.1,651.0 450.6,651.0 456.2,651.3 461.8,652.0 467.4,653.0 473.0,654.3 478.6,655.9 484.2,657.9 489.8,660.0 495.4,662.3 501.0,664.8 506.6,667.5 512.2,670.3 517.8,673.1 523.4,676.0 529.0,679.0 534.6,682.0 540.2,684.9 545.8,687.9 551.4,690.8 557.0,693.8 562.6,696.7 568.2,699.6 573.8,701.5 579.4,704.0 585.0,707.0 590.6,710.2 596.2,713.5 601.8,717.0 607.4,720.5 613.0,724.0 618.6,727.5 624.2,731.0 629.8,734.4 635.4,737.7 641.0,740.9 646.6,743.9 652.2,746.7 657.8,749.3 663.4,751.7 669.0,753.7 674.6,755.5 680.2,756.9 685.8,758.0 691.4,758.7 696.9,759.0 702.5,759.0 708.1,758.6 713.7,757.8 719.3,756.7 724.9,755.3 730.5,753.6 736.1,751.6 741.7,749.4 747.3,747.1 752.9,744.5 758.5,741.8 764.1,739.0 769.7,736.2 775.3,733.2 780.9,730.3 786.5,727.3 792.1,724.3 797.7,721.4 803.3,718.4 808.9,715.5 814.5,712.6 820.1,709.9 825.7,707.9 831.3,705.2 836.9,702.2 842.5,699.0 848.1,695.6 853.7,692.1 859.3,688.6 864.9,685.1 870.5,681.6 876.1,678.2 881.7,674.8 887.3,671.5 892.9,668.4 898.5,665.4 904.1,662.6 909.7,660.1 915.3,657.8 920.9,655.8 926.5,654.1 932.1,652.8 937.7,651.8 943.3,651.2 948.8,650.9 954.4,651.1 960.0,651.6 965.6,652.4 971.2,653.6 976.8,655.1 982.4,656.9 988.0,658.9 993.6,661.1 999.2,663.6 1004.8,666.2 1010.4,668.9 1016.0,671.7 1021.6,674.6 1027.2,677.5 1032.8,680.5 1038.4,683.4 1044.0,686.4 1049.6,689.4 1055.2,692.3 1060.8,695.2 1066.4,698.1 1072.0,700.5" fill="none" stroke="#38bdf8" stroke-width="2" opacity="0.92"/>
<polyline points="70.0,705.0 75.6,705.6 81.2,707.3 86.8,709.6 92.4,712.5 98.0,715.6 103.6,719.0 109.2,722.4 114.8,725.8 120.4,729.3 126.0,732.7 131.6,736.1 137.2,739.3 142.8,742.4 148.4,745.3 154.0,748.0 159.6,750.5 165.2,752.7 170.8,754.7 176.4,756.3 182.0,757.5 187.6,758.4 193.2,758.9 198.7,759.1 204.3,758.8 209.9,758.2 215.5,757.3 221.1,756.0 226.7,754.5 232.3,752.6 237.9,750.6 243.5,748.3 249.1,745.8 254.7,743.2 260.3,740.4 265.9,737.6 271.5,734.7 277.1,731.8 282.7,728.8 288.3,725.8 293.9,722.8 299.5,719.9 305.1,717.0 310.7,714.0 316.3,711.2 321.9,709.0 327.5,706.6 333.1,703.8 338.7,700.6 344.3,697.3 349.9,693.9 355.5,690.4 361.1,686.8 366.7,683.3 372.3,679.9 377.9,676.5 383.5,673.1 389.1,669.9 394.7,666.9 400.3,664.0 405.9,661.3 411.5,658.9 417.1,656.8 422.7,654.9 428.3,653.4 433.9,652.2 439.5,651.4 445.1,651.0 450.6,651.0 456.2,651.3 461.8,652.0 467.4,653.0 473.0,654.3 478.6,656.0 484.2,657.9 489.8,660.0 495.4,662.3 501.0,664.8 506.6,667.5 512.2,670.3 517.8,673.1 523.4,676.0 529.0,679.0 534.6,682.0 540.2,684.9 545.8,687.9 551.4,690.8 557.0,693.8 562.6,696.7 568.2,699.6 573.8,701.5 579.4,704.0 585.0,707.0 590.6,710.2 596.2,713.5 601.8,717.0 607.4,720.5 613.0,724.0 618.6,727.5 624.2,731.0 629.8,734.4 635.4,737.7 641.0,740.9 646.6,743.9 652.2,746.7 657.8,749.3 663.4,751.7 669.0,753.7 674.6,755.5 680.2,756.9 685.8,758.0 691.4,758.7 696.9,759.0 702.5,759.0 708.1,758.6 713.7,757.8 719.3,756.7 724.9,755.3 730.5,753.6 736.1,751.6 741.7,749.4 747.3,747.1 752.9,744.5 758.5,741.8 764.1,739.0 769.7,736.2 775.3,733.2 780.9,730.3 786.5,727.3 792.1,724.3 797.7,721.4 803.3,718.4 808.9,715.5 814.5,712.6 820.1,709.9 825.7,707.9 831.3,705.2 836.9,702.2 842.5,699.0 848.1,695.6 853.7,692.1 859.3,688.6 864.9,685.1 870.5,681.6 876.1,678.2 881.7,674.8 887.3,671.5 892.9,668.4 898.5,665.4 904.1,662.6 909.7,660.1 915.3,657.8 920.9,655.8 926.5,654.1 932.1,652.8 937.7,651.8 943.3,651.2 948.8,650.9 954.4,651.1 960.0,651.6 965.6,652.4 971.2,653.6 976.8,655.1 982.4,656.9 988.0,658.9 993.6,661.1 999.2,663.6 1004.8,666.2 1010.4,668.9 1016.0,671.7 1021.6,674.6 1027.2,677.5 1032.8,680.5 1038.4,683.4 1044.0,686.4 1049.6,689.4 1055.2,692.3 1060.8,695.2 1066.4,698.1 1072.0,700.5" fill="none" stroke="#f97316" stroke-width="2" opacity="0.92"/>
<text x="16" y="860.0" fill="#d6dde6" font-family="Segoe UI, Arial" font-size="13">Aux 2</text>
<line x1="70" y1="855.0" x2="1076" y2="855.0" stroke="#33414d" stroke-width="1"/>
<line x1="70" y1="794" x2="70" y2="916" stroke="#33414d" stroke-width="1"/>
<polyline points="70.0,883.5 75.6,896.0 81.2,901.9 86.8,905.0 92.4,906.9 98.0,908.0 103.6,908.7 109.2,909.0 114.8,908.9 120.4,908.5 126.0,907.7 131.6,906.5 137.2,905.0 142.8,903.3 148.4,901.3 154.0,899.1 159.6,896.7 165.2,894.1 170.8,891.4 176.4,888.6 182.0,885.7 187.6,882.7 193.2,879.8 198.7,876.8 204.3,873.8 209.9,870.9 215.5,867.9 221.1,865.0 226.7,862.1 232.3,859.6 237.9,857.5 243.5,854.8 249.1,851.7 254.7,848.4 260.3,845.0 265.9,841.5 271.5,838.0 277.1,834.5 282.7,831.0 288.3,827.6 293.9,824.2 299.5,821.0 305.1,817.9 310.7,814.9 316.3,812.2 321.9,809.7 327.5,807.4 333.1,805.5 338.7,803.9 344.3,802.6 349.9,801.7 355.5,801.1 361.1,800.9 366.7,801.1 372.3,801.7 377.9,802.6 383.5,803.8 389.1,805.4 394.7,807.2 400.3,809.2 405.9,811.5 411.5,814.0 417.1,816.6 422.7,819.3 428.3,822.2 433.9,825.0 439.5,828.0 445.1,831.0 450.6,833.9 456.2,836.9 461.8,839.9 467.4,842.8 473.0,845.7 478.6,848.6 484.2,850.8 489.8,853.2 495.4,856.0 501.0,859.1 506.6,862.4 512.2,865.8 517.8,869.3 523.4,872.8 529.0,876.4 534.6,879.8 540.2,883.2 545.8,886.6 551.4,889.8 557.0,892.9 562.6,895.8 568.2,898.5 573.8,900.9 579.4,903.1 585.0,904.9 590.6,906.5 596.2,907.7 601.8,908.5 607.4,909.0 613.0,909.0 618.6,908.8 624.2,908.1 629.8,907.1 635.4,905.8 641.0,904.2 646.6,902.3 652.2,900.2 657.8,897.9 663.4,895.4 669.0,892.7 674.6,890.0 680.2,887.1 685.8,884.2 691.4,881.3 696.9,878.3 702.5,875.3 708.1,872.4 713.7,869.4 719.3,866.5 724.9,863.6 730.5,860.7 736.1,858.7 741.7,856.2 747.3,853.3 752.9,850.1 758.5,846.8 764.1,843.3 769.7,839.8 775.3,836.3 780.9,832.8 786.5,829.3 792.1,825.9 797.7,822.6 803.3,819.4 808.9,816.4 814.5,813.5 820.1,810.9 825.7,808.5 831.3,806.4 836.9,804.6 842.5,803.2 848.1,802.1 853.7,801.4 859.3,801.0 864.9,801.0 870.5,801.4 876.1,802.1 881.7,803.2 887.3,804.6 892.9,806.2 898.5,808.2 904.1,810.4 909.7,812.7 915.3,815.3 920.9,817.9 926.5,820.7 932.1,823.6 937.7,826.5 943.3,829.5 948.8,832.4 954.4,835.4 960.0,838.4 965.6,841.3 971.2,844.2 976.8,847.1 982.4,849.9 988.0,851.9 993.6,854.5 999.2,857.5 1004.8,860.7 1010.4,864.1 1016.0,867.6 1021.6,871.1 1027.2,874.6 1032.8,878.1 1038.4,881.5 1044.0,884.9 1049.6,888.2 1055.2,891.4 1060.8,894.3 1066.4,897.1 1072.0,899.7" fill="none" stroke="#38bdf8" stroke-width="2" opacity="0.92"/>
<polyline points="70.0,883.5 75.6,896.0 81.2,901.9 86.8,905.0 92.4,906.9 98.0,908.0 103.6,908.7 109.2,909.0 114.8,908.9 120.4,908.5 126.0,907.7 131.6,906.5 137.2,905.0 142.8,903.3 148.4,901.3 154.0,899.1 159.6,896.6 165.2,894.1 170.8,891.4 176.4,888.6 182.0,885.7 187.6,882.7 193.2,879.8 198.7,876.8 204.3,873.8 209.9,870.9 215.5,867.9 221.1,865.0 226.7,862.1 232.3,859.6 237.9,857.5 243.5,854.8 249.1,851.7 254.7,848.4 260.3,845.0 265.9,841.5 271.5,838.0 277.1,834.5 282.7,831.0 288.3,827.6 293.9,824.2 299.5,821.0 305.1,817.9 310.7,814.9 316.3,812.2 321.9,809.7 327.5,807.4 333.1,805.5 338.7,803.9 344.3,802.6 349.9,801.7 355.5,801.1 361.1,800.9 366.7,801.1 372.3,801.7 377.9,802.6 383.5,803.8 389.1,805.4 394.7,807.2 400.3,809.2 405.9,811.5 411.5,814.0 417.1,816.6 422.7,819.3 428.3,822.2 433.9,825.0 439.5,828.0 445.1,831.0 450.6,833.9 456.2,836.9 461.8,839.9 467.4,842.8 473.0,845.7 478.6,848.6 484.2,850.8 489.8,853.2 495.4,856.0 501.0,859.1 506.6,862.4 512.2,865.8 517.8,869.3 523.4,872.8 529.0,876.4 534.6,879.8 540.2,883.2 545.8,886.6 551.4,889.8 557.0,892.9 562.6,895.8 568.2,898.5 573.8,900.9 579.4,903.1 585.0,904.9 590.6,906.5 596.2,907.7 601.8,908.5 607.4,909.0 613.0,909.0 618.6,908.8 624.2,908.1 629.8,907.1 635.4,905.8 641.0,904.2 646.6,902.3 652.2,900.2 657.8,897.9 663.4,895.4 669.0,892.7 674.6,890.0 680.2,887.1 685.8,884.2 691.4,881.3 696.9,878.3 702.5,875.3 708.1,872.4 713.7,869.4 719.3,866.5 724.9,863.6 730.5,860.7 736.1,858.7 741.7,856.2 747.3,853.3 752.9,850.1 758.5,846.8 764.1,843.3 769.7,839.8 775.3,836.3 780.9,832.8 786.5,829.3 792.1,825.9 797.7,822.6 803.3,819.4 808.9,816.4 814.5,813.5 820.1,810.9 825.7,808.5 831.3,806.4 836.9,804.6 842.5,803.2 848.1,802.1 853.7,801.4 859.3,801.0 864.9,801.0 870.5,801.4 876.1,802.1 881.7,803.2 887.3,804.6 892.9,806.2 898.5,808.2 904.1,810.4 909.7,812.7 915.3,815.3 920.9,817.9 926.5,820.7 932.1,823.6 937.7,826.5 943.3,829.5 948.8,832.4 954.4,835.4 960.0,838.4 965.6,841.3 971.2,844.2 976.8,847.1 982.4,849.9 988.0,851.9 993.6,854.5 999.2,857.5 1004.8,860.7 1010.4,864.1 1016.0,867.6 1021.6,871.1 1027.2,874.6 1032.8,878.1 1038.4,881.5 1044.0,884.9 1049.6,888.2 1055.2,891.4 1060.8,894.3 1066.4,897.1 1072.0,899.7" fill="none" stroke="#f97316" stroke-width="2" opacity="0.92"/>
<text x="780" y="28" fill="#38bdf8" font-family="Segoe UI, Arial" font-size="13">measured bridge final</text>
<text x="930" y="28" fill="#f97316" font-family="Segoe UI, Arial" font-size="13">stateful intended</text>
</svg>