<svg xmlns="http://www.w3.org/2000/svg" width="1100" height="974" viewBox="0 0 1100 974">
<rect width="100%" height="100%" fill="#0f1419"/>
<text x="24" y="28" fill="#f4f7fb" font-family="Segoe UI, Arial" font-size="18">Sharp-step sine measured output vs stateful intended output</text>
<text x="16" y="110.0" fill="#d6dde6" font-family="Segoe UI, Arial" font-size="13">Roll</text>
<line x1="70" y1="105.0" x2="1076" y2="105.0" stroke="#33414d" stroke-width="1"/>
<line x1="70" y1="44" x2="70" y2="166" stroke="#33414d" stroke-width="1"/>
<polyline points="70.0,94.4 75.6,87.5 81.2,82.6 86.8,78.7 92.4,75.3 98.0,72.1 103.6,69.0 109.2,65.8 114.8,77.1 120.4,83.0 126.0,85.7 131.6,86.6 137.2,86.3 142.8,85.5 148.4,84.5 154.0,83.3 159.6,82.1 165.2,81.0 170.8,80.0 176.4,79.2 182.0,78.5 187.6,77.9 193.2,77.6 198.7,77.4 204.3,77.5 209.9,77.7 215.5,78.1 221.1,78.6 226.7,79.4 232.3,80.2 237.9,81.2 243.5,82.4 249.1,83.6 254.7,84.9 260.3,86.3 265.9,87.7 271.5,89.2 277.1,90.8 282.7,92.3 288.3,93.9 293.9,95.5 299.5,97.1 305.1,98.7 310.7,100.3 316.3,102.0 321.9,122.7 327.5,134.1 333.1,141.1 338.7,146.1 344.3,150.4 349.9,154.4 355.5,156.7 361.1,157.5 366.7,140.7 372.3,131.6 377.9,127.0 383.5,125.1 389.1,124.7 394.7,125.2 400.3,126.1 405.9,127.1 411.5,128.2 417.1,129.3 422.7,130.2 428.3,131.0 433.9,131.7 439.5,132.2 445.1,132.5 450.6,132.6 456.2,132.5 461.8,132.2 467.4,131.8 473.0,131.2 478.6,130.4 484.2,129.5 489.8,128.5 495.4,127.4 501.0,126.1 506.6,124.8 512.2,123.4 517.8,121.9 523.4,120.4 529.0,118.8 534.6,117.3 540.2,115.7 545.8,114.1 551.4,112.5 557.0,110.9 562.6,109.3 568.2,107.8 573.8,89.1 579.4,78.5 585.0,71.8 590.6,66.9 596.2,62.8 601.8,59.0 607.4,55.3 613.0,53.2 618.6,69.6 624.2,78.5 629.8,82.9 635.4,84.7 641.0,85.0 646.6,84.5 652.2,83.6 657.8,82.5 663.4,81.5 669.0,80.4 674.6,79.5 680.2,78.8 685.8,78.2 691.4,77.7 696.9,77.5 702.5,77.4 708.1,77.6 713.7,77.9 719.3,78.3 724.9,79.0 730.5,79.8 736.1,80.7 741.7,81.8 747.3,83.0 752.9,84.2 758.5,85.6 764.1,87.0 769.7,88.5 775.3,90.0 780.9,91.6 786.5,93.1 792.1,94.7 797.7,96.3 803.3,97.9 808.9,99.5 814.5,101.1 820.1,102.5 825.7,117.3 831.3,126.2 836.9,132.1 842.5,136.6 848.1,140.3 853.7,143.8 859.3,147.2 864.9,150.6 870.5,136.9 876.1,129.7 881.7,126.2 887.3,125.0 892.9,125.0 898.5,125.7 904.1,126.6 909.7,127.7 915.3,128.8 920.9,129.8 926.5,130.7 932.1,131.4 937.7,131.9 943.3,132.3 948.8,132.5 954.4,132.5 960.0,132.4 965.6,132.0 971.2,131.5 976.8,130.8 982.4,130.0 988.0,129.0 993.6,127.9 999.2,126.7 1004.8,125.4 1010.4,124.1 1016.0,122.6 1021.6,121.1 1027.2,119.6 1032.8,118.1 1038.4,116.5 1044.0,114.9 1049.6,113.3 1055.2,111.7 1060.8,110.1 1066.4,108.4 1072.0,107.2" fill="none" stroke="#38bdf8" stroke-width="2" opacity="0.92"/>
<polyline points="70.0,94.4 75.6,87.5 81.2,82.6 86.8,78.7 92.4,75.3 98.0,72.1 103.6,69.0 109.2,65.8 114.8,77.1 120.4,83.0 126.0,85.7 131.6,86.6 137.2,86.3 142.8,85.5 148.4,84.5 154.0,83.3 159.6,82.1 165.2,81.0 170.8,80.0 176.4,79.2 182.0,78.5 187.6,77.9 193.2,77.6 198.7,77.4 204.3,77.5 209.9,77.7 215.5,78.1 221.1,78.6 226.7,79.4 232.3,80.2 237.9,81.2 243.5,82.4 249.1,83.6 254.7,84.9 260.3,86.3 265.9,87.7 271.5,89.2 277.1,90.8 282.7,92.3 288.3,93.9 293.9,95.5 299.5,97.1 305.1,98.7 310.7,100.3 316.3,102.0 321.9,122.7 327.5,134.1 333.1,141.1 338.7,146.1 344.3,150.4 349.9,154.4 355.5,156.7 361.1,157.5 366.7,140.7 372.3,131.6 377.9,127.0 383.5,125.1 389.1,124.7 394.7,125.2 400.3,126.1 405.9,127.1 411.5,128.2 417.1,129.3 422.7,130.2 428.3,131.0 433.9,131.7 439.5,132.2 445.1,132.5 450.6,132.6 456.2,132.5 461.8,132.2 467.4,131.8 473.0,131.2 478.6,130.4 484.2,129.5 489.8,128.5 495.4,127.4 501.0,126.1 506.6,124.8 512.2,123.4 517.8,121.9 523.4,120.4 529.0,118.8 534.6,117.3 540.2,115.7 545.8,114.1 551.4,112.5 557.0,110.9 562.6,109.3 568.2,107.8 573.8,89.1 579.4,78.5 585.0,71.8 590.6,66.9 596.2,62.8 601.8,59.0 607.4,55.3 613.0,53.2 618.6,69.6 624.2,78.5 629.8,82.9 635.4,84.7 641.0,85.0 646.6,84.5 652.2,83.6 657.8,82.5 663.4,81.5 669.0,80.4 674.6,79.5 680.2,78.8 685.8,78.2 691.4,77.7 696.9,77.5 702.5,77.4 708.1,77.6 713.7,77.9 719.3,78.3 724.9,79.0 730.5,79.8 736.1,80.7 741.7,81.8 747.3,83.0 752.9,84.2 758.5,85.6 764.1,87.0 769.7,88.5 775.3,90.0 780.9,91.6 786.5,93.1 792.1,94.7 797.7,96.3 803.3,97.9 808.9,99.5 814.5,101.1 820.1,102.5 825.7,117.3 831.3,126.2 836.9,132.1 842.5,136.6 848.1,140.3 853.7,143.8 859.3,147.2 864.9,150.6 870.5,136.9 876.1,129.7 881.7,126.2 887.3,125.0 892.9,125.0 898.5,125.7 904.1,126.6 909.7,127.7 915.3,128.8 920.9,129.8 926.5,130.7 932.1,131.4 937.7,131.9 943.3,132.3 948.8,132.5 954.4,132.5 960.0,132.4 965.6,132.0 971.2,131.5 976.8,130.8 982.4,130.0 988.0,129.0 993.6,127.9 999.2,126.7 1004.8,125.4 1010.4,124.1 1016.0,122.6 1021.6,121.1 1027.2,119.6 1032.8,118.1 1038.4,116.5 1044.0,114.9 1049.6,113.3 1055.2,111.7 1060.8,110.1 1066.4,108.4 1072.0,107.2" fill="none" stroke="#f97316" stroke-width="2" opacity="0.92"/>
<text x="16" y="260.0" fill="#d6dde6" font-family="Segoe UI, Arial" font-size="13">Pitch</text>
<line x1="70" y1="255.0" x2="1076" y2="255.0" stroke="#33414d" stroke-width="1"/>
<line x1="70" y1="194" x2="70" y2="316" stroke="#33414d" stroke-width="1"/>
<polyline points="70.0,226.7 75.6,213.4 81.2,206.5 86.8,204.1 92.4,203.2 98.0,202.9 103.6,202.8 109.2,202.8 114.8,216.8 120.4,223.7 126.0,226.9 131.6,228.3 137.2,228.8 142.8,229.0 148.4,229.1 154.0,229.2 159.6,229.5 165.2,229.9 170.8,230.5 176.4,231.2 182.0,232.0 187.6,233.0 193.2,234.1 198.7,235.3 204.3,236.5 209.9,237.8 215.5,239.2 221.1,240.6 226.7,242.1 232.3,243.5 237.9,245.0 243.5,246.4 249.1,247.9 254.7,249.3 260.3,250.8 265.9,252.2 271.5,253.2 277.1,254.1 282.7,255.2 288.3,256.6 293.9,258.0 299.5,259.5 305.1,261.1 310.7,262.6 316.3,264.3 321.9,292.2 327.5,302.0 333.1,305.4 338.7,306.6 344.3,307.0 349.9,307.2 355.5,307.2 361.1,307.2 366.7,293.3 372.3,286.4 377.9,283.2 383.5,281.8 389.1,281.3 394.7,281.1 400.3,280.9 405.9,280.7 411.5,280.4 417.1,280.0 422.7,279.4 428.3,278.6 433.9,277.8 439.5,276.8 445.1,275.6 450.6,274.4 456.2,273.2 461.8,271.8 467.4,270.4 473.0,269.0 478.6,267.6 484.2,266.1 489.8,264.7 495.4,263.2 501.0,261.8 506.6,260.3 512.2,258.9 517.8,257.5 523.4,256.6 529.0,255.7 534.6,254.4 540.2,253.1 545.8,251.6 551.4,250.1 557.0,248.5 562.6,247.0 568.2,245.3 573.8,217.7 579.4,208.0 585.0,204.6 590.6,203.4 596.2,203.0 601.8,202.8 607.4,202.8 613.0,202.8 618.6,216.6 624.2,223.5 629.8,226.7 635.4,228.1 641.0,228.6 646.6,228.9 652.2,229.1 657.8,229.3 663.4,229.7 669.0,230.1 674.6,230.8 680.2,231.6 685.8,232.5 691.4,233.5 696.9,234.7 702.5,235.9 708.1,237.2 713.7,238.5 719.3,239.9 724.9,241.3 730.5,242.8 736.1,244.2 741.7,245.7 747.3,247.2 752.9,248.6 758.5,250.1 764.1,251.5 769.7,252.7 775.3,253.5 780.9,254.6 786.5,255.9 792.1,257.2 797.7,258.7 803.3,260.3 808.9,261.8 814.5,263.4 820.1,265.1 825.7,292.5 831.3,302.1 836.9,305.4 842.5,306.6 848.1,307.0 853.7,307.2 859.3,307.2 864.9,307.2 870.5,293.4 876.1,286.6 881.7,283.5 887.3,282.0 892.9,281.4 898.5,281.1 904.1,280.9 909.7,280.6 915.3,280.2 920.9,279.7 926.5,279.0 932.1,278.2 937.7,277.3 943.3,276.2 948.8,275.0 954.4,273.8 960.0,272.5 965.6,271.1 971.2,269.7 976.8,268.3 982.4,266.8 988.0,265.4 993.6,263.9 999.2,262.5 1004.8,261.0 1010.4,259.6 1016.0,258.1 1021.6,257.0 1027.2,256.2 1032.8,255.1 1038.4,253.8 1044.0,252.4 1049.6,250.9 1055.2,249.3 1060.8,247.8 1066.4,246.2 1072.0,244.5" fill="none" stroke="#38bdf8" stroke-width="2" opacity="0.92"/>
<polyline points="70.0,226.7 75.6,213.4 81.2,206.5 86.8,204.1 92.4,203.2 98.0,202.9 103.6,202.8 109.2,202.8 114.8,216.8 120.4,223.7 126.0,226.9 131.6,228.3 137.2,228.8 142.8,229.0 148.4,229.1 154.0,229.2 159.6,229.5 165.2,229.9 170.8,230.5 176.4,231.2 182.0,232.0 187.6,233.0 193.2,234.1 198.7,235.3 204.3,236.5 209.9,237.8 215.5,239.2 221.1,240.6 226.7,242.1 232.3,243.5 237.9,245.0 243.5,246.4 249.1,247.9 254.7,249.3 260.3,250.8 265.9,252.2 271.5,253.2 277.1,254.1 282.7,255.2 288.3,256.6 293.9,258.0 299.5,259.5 305.1,261.1 310.7,262.6 316.3,264.3 321.9,292.2 327.5,302.0 333.1,305.4 338.7,306.6 344.3,307.0 349.9,307.2 355.5,307.2 361.1,307.2 366.7,293.3 372.3,286.4 377.9,283.2 383.5,281.8 389.1,281.3 394.7,281.1 400.3,280.9 405.9,280.7 411.5,280.4 417.1,280.0 422.7,279.4 428.3,278.6 433.9,277.8 439.5,276.8 445.1,275.6 450.6,274.4 456.2,273.2 461.8,271.8 467.4,270.4 473.0,269.0 478.6,267.6 484.2,266.1 489.8,264.7 495.4,263.2 501.0,261.8 506.6,260.3 512.2,258.9 517.8,257.5 523.4,256.6 529.0,255.7 534.6,254.4 540.2,253.1 545.8,251.6 551.4,250.1 557.0,248.5 562.6,247.0 568.2,245.3 573.8,217.7 579.4,208.0 585.0,204.6 590.6,203.4 596.2,203.0 601.8,202.8 607.4,202.8 613.0,202.8 618.6,216.6 624.2,223.5 629.8,226.7 635.4,228.1 641.0,228.6 646.6,228.9 652.2,229.1 657.8,229.3 663.4,229.7 669.0,230.1 674.6,230.8 680.2,231.6 685.8,232.5 691.4,233.5 696.9,234.7 702.5,235.9 708.1,237.2 713.7,238.5 719.3,239.9 724.9,241.3 730.5,242.8 736.1,244.2 741.7,245.7 747.3,247.2 752.9,248.6 758.5,250.1 764.1,251.5 769.7,252.7 775.3,253.5 780.9,254.6 786.5,255.9 792.1,257.2 797.7,258.7 803.3,260.3 808.9,261.8 814.5,263.4 820.1,265.1 825.7,292.5 831.3,302.1 836.9,305.4 842.5,306.6 848.1,307.0 853.7,307.2 859.3,307.2 864.9,307.2 870.5,293.4 876.1,286.6 881.7,283.5 887.3,282.0 892.9,281.4 898.5,281.1 904.1,280.9 909.7,280.6 915.3,280.2 920.9,279.7 926.5,279.0 932.1,278.2 937.7,277.3 943.3,276.2 948.8,275.0 954.4,273.8 960.0,272.5 965.6,271.1 971.2,269.7 976.8,268.3 982.4,266.8 988.0,265.4 993.6,263.9 999.2,262.5 1004.8,261.0 1010.4,259.6 1016.0,258.1 1021.6,257.0 1027.2,256.2 1032.8,255.1 1038.4,253.8 1044.0,252.4 1049.6,250.9 1055.2,249.3 1060.8,247.8 1066.4,246.2 1072.0,244.5" fill="none" stroke="#f97316" stroke-width="2" opacity="0.92"/>
<text x="16" y="410.0" fill="#d6dde6" font-family="Segoe UI, Arial" font-size="13">Throttle</text>
<line x1="70" y1="405.0" x2="1076" y2="405.0" stroke="#33414d" stroke-width="1"/>
<line x1="70" y1="344" x2="70" y2="466" stroke="#33414d" stroke-width="1"/>
<polyline points="70.0,359.3 75.6,349.6 81.2,347.5 86.8,347.1 92.4,347.0 98.0,347.0 103.6,347.0 109.2,347.0 114.8,355.4 120.4,357.6 126.0,358.4 131.6,358.8 137.2,359.2 142.8,359.6 148.4,360.2 154.0,360.8 159.6,361.5 165.2,362.3 170.8,363.2 176.4,364.1 182.0,365.1 187.6,366.1 193.2,367.2 198.7,368.4 204.3,369.5 209.9,370.7 215.5,372.0 221.1,373.2 226.7,374.4 232.3,375.7 237.9,377.0 243.5,378.2 249.1,379.5 254.7,380.7 260.3,381.9 265.9,383.0 271.5,384.2 277.1,385.3 282.7,386.3 288.3,387.4 293.9,388.3 299.5,389.2 305.1,390.1 310.7,390.9 316.3,391.6 321.9,398.4 327.5,401.4 333.1,402.8 338.7,403.4 344.3,403.7 349.9,403.8 355.5,403.8 361.1,403.9 366.7,398.5 372.3,396.2 377.9,395.2 383.5,394.6 389.1,394.2 394.7,393.7 400.3,393.3 405.9,392.7 411.5,392.1 417.1,391.4 422.7,390.6 428.3,389.8 433.9,388.9 439.5,388.0 445.1,387.0 450.6,385.9 456.2,384.8 461.8,383.7 467.4,382.5 473.0,381.3 478.6,380.0 484.2,378.8 489.8,377.5 495.4,376.2 501.0,374.9 506.6,373.6 512.2,372.4 517.8,371.1 523.4,369.9 529.0,368.7 534.6,367.5 540.2,366.4 545.8,365.3 551.4,364.3 557.0,363.3 562.6,362.5 568.2,361.7 573.8,350.1 579.4,347.6 585.0,347.1 590.6,347.0 596.2,347.0 601.8,347.0 607.4,347.0 613.0,347.0 618.6,355.4 624.2,357.7 629.8,358.5 635.4,358.9 641.0,359.4 646.6,359.9 652.2,360.5 657.8,361.2 663.4,361.9 669.0,362.7 674.6,363.6 680.2,364.6 685.8,365.6 691.4,366.7 696.9,367.8 702.5,368.9 708.1,370.1 713.7,371.3 719.3,372.6 724.9,373.8 730.5,375.1 736.1,376.3 741.7,377.6 747.3,378.8 752.9,380.1 758.5,381.3 764.1,382.5 769.7,383.6 775.3,384.7 780.9,385.8 786.5,386.9 792.1,387.9 797.7,388.8 803.3,389.7 808.9,390.5 814.5,391.2 820.1,391.9 825.7,398.6 831.3,401.5 836.9,402.8 842.5,403.4 848.1,403.7 853.7,403.8 859.3,403.8 864.9,403.9 870.5,398.5 876.1,396.2 881.7,395.1 887.3,394.5 892.9,394.0 898.5,393.5 904.1,393.0 909.7,392.4 915.3,391.8 920.9,391.0 926.5,390.2 932.1,389.4 937.7,388.5 943.3,387.5 948.8,386.5 954.4,385.4 960.0,384.3 965.6,383.1 971.2,381.9 976.8,380.7 982.4,379.4 988.0,378.1 993.6,376.9 999.2,375.6 1004.8,374.3 1010.4,373.0 1016.0,371.7 1021.6,370.5 1027.2,369.3 1032.8,368.1 1038.4,366.9 1044.0,365.8 1049.6,364.8 1055.2,363.8 1060.8,362.9 1066.4,362.0 1072.0,361.3" fill="none" stroke="#38bdf8" stroke-width="2" opacity="0.92"/>
<polyline points="70.0,359.3 75.6,349.6 81.2,347.5 86.8,347.1 92.4,347.0 98.0,347.0 103.6,347.0 109.2,347.0 114.8,355.4 120.4,357.6 126.0,358.4 131.6,358.8 137.2,359.2 142.8,359.6 148.4,360.2 154.0,360.8 159.6,361.5 165.2,362.3 170.8,363.2 176.4,364.1 182.0,365.1 187.6,366.1 193.2,367.2 198.7,368.4 204.3,369.5 209.9,370.7 215.5,372.0 221.1,373.2 226.7,374.4 232.3,375.7 237.9,377.0 243.5,378.2 249.1,379.5 254.7,380.7 260.3,381.9 265.9,383.0 271.5,384.2 277.1,385.3 282.7,386.3 288.3,387.4 293.9,388.3 299.5,389.2 305.1,390.1 310.7,390.9 316.3,391.6 321.9,398.4 327.5,401.4 333.1,402.8 338.7,403.4 344.3,403.7 349.9,403.8 355.5,403.8 361.1,403.9 366.7,398.5 372.3,396.2 377.9,395.2 383.5,394.6 389.1,394.2 394.7,393.7 400.3,393.3 405.9,392.7 411.5,392.1 417.1,391.4 422.7,390.6 428.3,389.8 433.9,388.9 439.5,388.0 445.1,387.0 450.6,385.9 456.2,384.8 461.8,383.7 467.4,382.5 473.0,381.3 478.6,380.0 484.2,378.8 489.8,377.5 495.4,376.2 501.0,374.9 506.6,373.6 512.2,372.4 517.8,371.1 523.4,369.9 529.0,368.7 534.6,367.5 540.2,366.4 545.8,365.3 551.4,364.3 557.0,363.3 562.6,362.5 568.2,361.7 573.8,350.1 579.4,347.6 585.0,347.1 590.6,347.0 596.2,347.0 601.8,347.0 607.4,347.0 613.0,347.0 618.6,355.4 624.2,357.7 629.8,358.5 635.4,358.9 641.0,359.4 646.6,359.9 652.2,360.5 657.8,361.2 663.4,361.9 669.0,362.7 674.6,363.6 680.2,364.6 685.8,365.6 691.4,366.7 696.9,367.8 702.5,368.9 708.1,370.1 713.7,371.3 719.3,372.6 724.9,373.8 730.5,375.1 736.1,376.3 741.7,377.6 747.3,378.8 752.9,380.1 758.5,381.3 764.1,382.5 769.7,383.6 775.3,384.7 780.9,385.8 786.5,386.9 792.1,387.9 797.7,388.8 803.3,389.7 808.9,390.5 814.5,391.2 820.1,391.9 825.7,398.6 831.3,401.5 836.9,402.8 842.5,403.4 848.1,403.7 853.7,403.8 859.3,403.8 864.9,403.9 870.5,398.5 876.1,396.2 881.7,395.1 887.3,394.5 892.9,394.0 898.5,393.5 904.1,393.0 909.7,392.4 915.3,391.8 920.9,391.0 926.5,390.2 932.1,389.4 937.7,388.5 943.3,387.5 948.8,386.5 954.4,385.4 960.0,384.3 965.6,383.1 971.2,381.9 976.8,380.7 982.4,379.4 988.0,378.1 993.6,376.9 999.2,375.6 1004.8,374.3 1010.4,373.0 1016.0,371.7 1021.6,370.5 1027.2,369.3 1032.8,368.1 1038.4,366.9 1044.0,365.8 1049.6,364.8 1055.2,363.8 1060.8,362.9 1066.4,362.0 1072.0,361.3" fill="none" stroke="#f97316" stroke-width="2" opacity="0.92"/>
<text x="16" y="560.0" fill="#d6dde6" font-family="Segoe UI, Arial" font-size="13">Yaw</text>
<line x1="70" y1="555.0" x2="1076" y2="555.0" stroke="#33414d" stroke-width="1"/>
<line x1="70" y1="494" x2="70" y2="616" stroke="#33414d" stroke-width="1"/>
<polyline points="70.0,527.5 75.6,514.9 81.2,509.2 86.8,506.5 92.4,505.3 98.0,504.7 103.6,504.5 109.2,504.4 114.8,516.1 120.4,524.1 126.0,529.7 131.6,533.8 137.2,536.9 142.8,539.3 148.4,541.4 154.0,543.2 159.6,544.8 165.2,546.2 170.8,547.6 176.4,548.8 182.0,550.0 187.6,551.1 193.2,552.1 198.7,552.8 204.3,553.6 209.9,554.4 215.5,555.4 221.1,556.4 226.7,557.5 232.3,558.7 237.9,559.9 243.5,561.2 249.1,562.5 254.7,563.8 260.3,565.2 265.9,566.6 271.5,567.9 277.1,569.3 282.7,570.5 288.3,571.8 293.9,572.9 299.5,573.8 305.1,574.7 310.7,575.4 316.3,575.9 321.9,592.1 327.5,599.5 333.1,602.9 338.7,604.4 344.3,605.1 349.9,605.5 355.5,605.6 361.1,605.7 366.7,593.9 372.3,585.8 377.9,580.2 383.5,576.1 389.1,572.9 394.7,570.4 400.3,568.4 405.9,566.6 411.5,565.0 417.1,563.5 422.7,562.2 428.3,560.9 433.9,559.7 439.5,558.6 445.1,557.7 450.6,557.0 456.2,556.2 461.8,555.4 467.4,554.4 473.0,553.3 478.6,552.2 484.2,551.0 489.8,549.8 495.4,548.5 501.0,547.2 506.6,545.8 512.2,544.5 517.8,543.1 523.4,541.7 529.0,540.4 534.6,539.1 540.2,538.0 545.8,536.9 551.4,535.9 557.0,535.1 562.6,534.5 568.2,534.0 573.8,517.9 579.4,510.5 585.0,507.1 590.6,505.6 596.2,504.9 601.8,504.5 607.4,504.4 613.0,504.3 618.6,516.2 624.2,524.3 629.8,529.9 635.4,534.1 641.0,537.3 646.6,539.8 652.2,541.9 657.8,543.7 663.4,545.3 669.0,546.7 674.6,548.1 680.2,549.3 685.8,550.5 691.4,551.6 696.9,552.5 702.5,553.2 708.1,554.0 713.7,554.9 719.3,555.9 724.9,557.0 730.5,558.1 736.1,559.3 741.7,560.5 747.3,561.8 752.9,563.2 758.5,564.5 764.1,565.9 769.7,567.3 775.3,568.6 780.9,569.9 786.5,571.2 792.1,572.3 797.7,573.4 803.3,574.3 808.9,575.1 814.5,575.7 820.1,576.1 825.7,592.1 831.3,599.5 836.9,602.9 842.5,604.4 848.1,605.1 853.7,605.5 859.3,605.6 864.9,605.7 870.5,593.8 876.1,585.6 881.7,579.9 887.3,575.7 892.9,572.5 898.5,570.0 904.1,567.9 909.7,566.1 915.3,564.5 920.9,563.0 926.5,561.7 932.1,560.4 937.7,559.2 943.3,558.2 948.8,557.4 954.4,556.7 960.0,555.8 965.6,554.9 971.2,553.9 976.8,552.8 982.4,551.6 988.0,550.4 993.6,549.2 999.2,547.9 1004.8,546.5 1010.4,545.2 1016.0,543.8 1021.6,542.4 1027.2,541.1 1032.8,539.8 1038.4,538.5 1044.0,537.4 1049.6,536.4 1055.2,535.5 1060.8,534.8 1066.4,534.2 1072.0,533.8" fill="none" stroke="#38bdf8" stroke-width="2" opacity="0.92"/>
<polyline points="70.0,527.5 75.6,514.9 81.2,509.2 86.8,506.5 92.4,505.3 98.0,504.7 103.6,504.5 109.2,504.4 114.8,516.1 120.4,524.1 126.0,529.7 131.6,533.8 137.2,536.9 142.8,539.3 148.4,541.4 154.0,543.2 159.6,544.8 165.2,546.2 170.8,547.6 176.4,548.8 182.0,550.0 187.6,551.1 193.2,552.1 198.7,552.8 204.3,553.6 209.9,554.4 215.5,555.4 221.1,556.4 226.7,557.5 232.3,558.7 237.9,559.9 243.5,561.2 249.1,562.5 254.7,563.8 260.3,565.2 265.9,566.6 271.5,567.9 277.1,569.3 282.7,570.5 288.3,571.8 293.9,572.9 299.5,573.8 305.1,574.7 310.7,575.4 316.3,575.9 321.9,592.1 327.5,599.5 333.1,602.9 338.7,604.4 344.3,605.1 349.9,605.5 355.5,605.6 361.1,605.7 366.7,593.9 372.3,585.8 377.9,580.2 383.5,576.1 389.1,572.9 394.7,570.4 400.3,568.4 405.9,566.6 411.5,565.0 417.1,563.5 422.7,562.2 428.3,560.9 433.9,559.7 439.5,558.6 445.1,557.7 450.6,557.0 456.2,556.2 461.8,555.4 467.4,554.4 473.0,553.3 478.6,552.2 484.2,551.0 489.8,549.8 495.4,548.5 501.0,547.2 506.6,545.8 512.2,544.5 517.8,543.1 523.4,541.7 529.0,540.4 534.6,539.1 540.2,538.0 545.8,536.9 551.4,535.9 557.0,535.1 562.6,534.5 568.2,534.0 573.8,517.9 579.4,510.5 585.0,507.1 590.6,505.6 596.2,504.9 601.8,504.5 607.4,504.4 613.0,504.3 618.6,516.2 624.2,524.3 629.8,529.9 635.4,534.1 641.0,537.3 646.6,539.8 652.2,541.9 657.8,543.7 663.4,545.3 669.0,546.7 674.6,548.1 680.2,549.3 685.8,550.5 691.4,551.6 696.9,552.5 702.5,553.2 708.1,554.0 713.7,554.9 719.3,555.9 724.9,557.0 730.5,558.1 736.1,559.3 741.7,560.5 747.3,561.8 752.9,563.2 758.5,564.5 764.1,565.9 769.7,567.3 775.3,568.6 780.9,569.9 786.5,571.2 792.1,572.3 797.7,573.4 803.3,574.3 808.9,575.1 814.5,575.7 820.1,576.1 825.7,592.1 831.3,599.5 836.9,602.9 842.5,604.4 848.1,605.1 853.7,605.5 859.3,605.6 864.9,605.7 870.5,593.8 876.1,585.6 881.7,579.9 887.3,575.7 892.9,572.5 898.5,570.0 904.1,567.9 909.7,566.1 915.3,564.5 920.9,563.0 926.5,561.7 932.1,560.4 937.7,559.2 943.3,558.2 948.8,557.4 954.4,556.7 960.0,555.8 965.6,554.9 971.2,553.9 976.8,552.8 982.4,551.6 988.0,550.4 993.6,549.2 999.2,547.9 1004.8,546.5 1010.4,545.2 1016.0,543.8 1021.6,542.4 1027.2,541.1 1032.8,539.8 1038.4,538.5 1044.0,537.4 1049.6,536.4 1055.2,535.5 1060.8,534.8 1066.4,534.2 1072.0,533.8" fill="none" stroke="#f97316" stroke-width="2" opacity="0.92"/>
<text x="16" y="710.0" fill="#d6dde6" font-family="Segoe UI, Arial" font-size="13">Aux 1</text>
<line x1="70" y1="705.0" x2="1076" y2="705.0" stroke="#33414d" stroke-width="1"/>
<line x1="70" y1="644" x2="70" y2="766" stroke="#33414d" stroke-width="1"/>
<polyline points="70.0,692.4 75.6,687.4 81.2,686.0 86.8,686.4 92.4,687.5 98.0,689.1 103.6,690.8 109.2,692.6 114.8,704.4 120.4,712.1 126.0,717.3 131.6,721.0 137.2,723.8 142.8,726.1 148.4,728.0 154.0,729.6 159.6,731.0 165.2,732.2 170.8,733.3 176.4,734.2 182.0,734.9 187.6,735.4 193.2,735.7 198.7,735.9 204.3,735.8 209.9,735.6 215.5,735.2 221.1,734.6 226.7,733.9 232.3,733.0 237.9,731.9 243.5,730.8 249.1,729.5 254.7,728.1 260.3,726.6 265.9,725.0 271.5,723.3 277.1,721.6 282.7,719.8 288.3,718.0 293.9,716.2 299.5,714.3 305.1,712.4 310.7,710.5 316.3,708.6 321.9,726.9 327.5,733.2 333.1,734.6 338.7,734.0 344.3,732.4 349.9,730.5 355.5,728.5 361.1,726.6 366.7,710.4 372.3,700.3 377.9,693.7 383.5,689.3 389.1,686.2 394.7,683.7 400.3,681.8 405.9,680.1 411.5,678.7 417.1,677.5 422.7,676.5 428.3,675.6 433.9,675.0 439.5,674.5 445.1,674.2 450.6,674.1 456.2,674.2 461.8,674.5 467.4,674.9 473.0,675.6 478.6,676.3 484.2,677.3 489.8,678.3 495.4,679.6 501.0,680.9 506.6,682.3 512.2,683.8 517.8,685.4 523.4,687.1 529.0,688.8 534.6,690.6 540.2,692.4 545.8,694.3 551.4,696.2 557.0,698.0 562.6,700.0 568.2,701.7 573.8,686.0 579.4,680.3 585.0,678.9 590.6,679.5 596.2,680.9 601.8,682.6 607.4,684.5 613.0,686.4 618.6,701.6 624.2,711.1 629.8,717.2 635.4,721.4 641.0,724.4 646.6,726.8 652.2,728.6 657.8,730.2 663.4,731.6 669.0,732.8 674.6,733.7 680.2,734.5 685.8,735.1 691.4,735.6 696.9,735.8 702.5,735.9 708.1,735.7 713.7,735.4 719.3,734.9 724.9,734.3 730.5,733.4 736.1,732.5 741.7,731.4 747.3,730.1 752.9,728.8 758.5,727.3 764.1,725.8 769.7,724.2 775.3,722.5 780.9,720.7 786.5,718.9 792.1,717.1 797.7,715.3 803.3,713.4 808.9,711.5 814.5,709.6 820.1,708.0 825.7,719.6 831.3,724.1 836.9,725.2 842.5,724.7 848.1,723.4 853.7,721.8 859.3,720.1 864.9,718.3 870.5,705.2 876.1,696.9 881.7,691.5 887.3,687.7 892.9,684.9 898.5,682.7 904.1,680.9 909.7,679.4 915.3,678.1 920.9,677.0 926.5,676.0 932.1,675.3 937.7,674.7 943.3,674.3 948.8,674.2 954.4,674.2 960.0,674.3 965.6,674.7 971.2,675.2 976.8,675.9 982.4,676.8 988.0,677.8 993.6,678.9 999.2,680.2 1004.8,681.6 1010.4,683.1 1016.0,684.6 1021.6,686.3 1027.2,688.0 1032.8,689.7 1038.4,691.5 1044.0,693.4 1049.6,695.2 1055.2,697.1 1060.8,699.0 1066.4,700.9 1072.0,702.3" fill="none" stroke="#38bdf8" stroke-width="2" opacity="0.92"/>
<polyline points="70.0,692.4 75.6,687.4 81.2,686.0 86.8,686.4 92.4,687.5 98.0,689.1 103.6,690.8 109.2,692.6 114.8,704.4 120.4,712.1 126.0,717.3 131.6,721.0 137.2,723.8 142.8,726.1 148.4,728.0 154.0,729.6 159.6,731.0 165.2,732.2 170.8,733.3 176.4,734.2 182.0,734.9 187.6,735.4 193.2,735.7 198.7,735.9 204.3,735.8 209.9,735.6 215.5,735.2 221.1,734.6 226.7,733.9 232.3,733.0 237.9,731.9 243.5,730.8 249.1,729.5 254.7,728.1 260.3,726.6 265.9,725.0 271.5,723.3 277.1,721.6 282.7,719.8 288.3,718.0 293.9,716.2 299.5,714.3 305.1,712.4 310.7,710.5 316.3,708.6 321.9,726.9 327.5,733.2 333.1,734.6 338.7,734.0 344.3,732.4 349.9,730.5 355.5,728.5 361.1,726.6 366.7,710.4 372.3,700.3 377.9,693.7 383.5,689.3 389.1,686.2 394.7,683.7 400.3,681.8 405.9,680.1 411.5,678.7 417.1,677.5 422.7,676.5 428.3,675.6 433.9,675.0 439.5,674.5 445.1,674.2 450.6,674.1 456.2,674.2 461.8,674.5 467.4,674.9 473.0,675.6 478.6,676.3 484.2,677.3 489.8,678.3 495.4,679.6 501.0,680.9 506.6,682.3 512.2,683.8 517.8,685.4 523.4,687.1 529.0,688.8 534.6,690.6 540.2,692.4 545.8,694.3 551.4,696.2 557.0,698.0 562.6,700.0 568.2,701.7 573.8,686.0 579.4,680.3 585.0,678.9 590.6,679.5 596.2,680.9 601.8,682.6 607.4,684.5 613.0,686.4 618.6,701.6 624.2,711.1 629.8,717.2 635.4,721.4 641.0,724.4 646.6,726.8 652.2,728.6 657.8,730.2 663.4,731.6 669.0,732.8 674.6,733.7 680.2,734.5 685.8,735.1 691.4,735.6 696.9,735.8 702.5,735.9 708.1,735.7 713.7,735.4 719.3,734.9 724.9,734.3 730.5,733.4 736.1,732.5 741.7,731.4 747.3,730.1 752.9,728.8 758.5,727.3 764.1,725.8 769.7,724.2 775.3,722.5 780.9,720.7 786.5,718.9 792.1,717.1 797.7,715.3 803.3,713.4 808.9,711.5 814.5,709.6 820.1,708.0 825.7,719.6 831.3,724.1 836.9,725.2 842.5,724.7 848.1,723.4 853.7,721.8 859.3,720.1 864.9,718.3 870.5,705.2 876.1,696.9 881.7,691.5 887.3,687.7 892.9,684.9 898.5,682.7 904.1,680.9 909.7,679.4 915.3,678.1 920.9,677.0 926.5,676.0 932.1,675.3 937.7,674.7 943.3,674.3 948.8,674.2 954.4,674.2 960.0,674.3 965.6,674.7 971.2,675.2 976.8,675.9 982.4,676.8 988.0,677.8 993.6,678.9 999.2,680.2 1004.8,681.6 1010.4,683.1 1016.0,684.6 1021.6,686.3 1027.2,688.0 1032.8,689.7 1038.4,691.5 1044.0,693.3 1049.6,695.2 1055.2,697.1 1060.8,699.0 1066.4,700.9 1072.0,702.3" fill="none" stroke="#f97316" stroke-width="2" opacity="0.92"/>
<text x="16" y="860.0" fill="#d6dde6" font-family="Segoe UI, Arial" font-size="13">Aux 2</text>
<line x1="70" y1="855.0" x2="1076" y2="855.0" stroke="#33414d" stroke-width="1"/>
<line x1="70" y1="794" x2="70" y2="916" stroke="#33414d" stroke-width="1"/>
<polyline points="70.0,855.0 75.6,855.3 81.2,855.7 86.8,856.2 92.4,856.7 98.0,857.1 103.6,857.5 109.2,857.7 114.8,872.6 120.4,879.4 126.0,882.3 131.6,883.4 137.2,883.4 142.8,882.9 148.4,882.1 154.0,881.1 159.6,879.9 165.2,878.5 170.8,877.1 176.4,875.5 182.0,873.9 187.6,872.2 193.2,870.4 198.7,868.6 204.3,866.8 209.9,864.9 215.5,863.1 221.1,861.2 226.7,859.3 232.3,857.8 237.9,856.6 243.5,855.1 249.1,853.3 254.7,851.4 260.3,849.3 265.9,847.2 271.5,845.1 277.1,843.1 282.7,841.0 288.3,839.0 293.9,837.1 299.5,835.3 305.1,833.5 310.7,831.9 316.3,830.4 321.9,842.3 327.5,849.1 333.1,853.1 338.7,855.3 344.3,856.5 349.9,857.2 355.5,857.5 361.1,857.7 366.7,840.1 372.3,831.9 377.9,828.4 383.5,827.1 389.1,826.9 394.7,827.4 400.3,828.2 405.9,829.2 411.5,830.5 417.1,831.8 422.7,833.3 428.3,834.9 433.9,836.5 439.5,838.2 445.1,840.0 450.6,841.8 456.2,843.7 461.8,845.5 467.4,847.4 473.0,849.3 478.6,851.2 484.2,852.5 489.8,853.8 495.4,855.3 501.0,857.1 506.6,859.1 512.2,861.2 517.8,863.3 523.4,865.4 529.0,867.5 534.6,869.5 540.2,871.5 545.8,873.4 551.4,875.2 557.0,876.9 562.6,878.5 568.2,879.9 573.8,869.4 579.4,863.1 585.0,859.4 590.6,857.2 596.2,856.0 601.8,855.3 607.4,854.9 613.0,854.7 618.6,871.0 624.2,878.5 629.8,881.7 635.4,882.9 641.0,882.9 646.6,882.4 652.2,881.6 657.8,880.5 663.4,879.2 669.0,877.8 674.6,876.3 680.2,874.7 685.8,873.0 691.4,871.3 696.9,869.5 702.5,867.7 708.1,865.9 713.7,864.0 719.3,862.1 724.9,860.2 730.5,858.4 736.1,857.2 741.7,855.9 747.3,854.2 752.9,852.4 758.5,850.4 764.1,848.3 769.7,846.2 775.3,844.1 780.9,842.0 786.5,840.0 792.1,838.0 797.7,836.2 803.3,834.4 808.9,832.7 814.5,831.1 820.1,829.7 825.7,838.6 831.3,844.3 836.9,848.1 842.5,850.4 848.1,851.9 853.7,852.7 859.3,853.2 864.9,853.6 870.5,838.2 876.1,831.2 881.7,828.2 887.3,827.2 892.9,827.2 898.5,827.8 904.1,828.7 909.7,829.9 915.3,831.2 920.9,832.6 926.5,834.1 932.1,835.7 937.7,837.4 943.3,839.1 948.8,840.9 954.4,842.7 960.0,844.6 965.6,846.5 971.2,848.4 976.8,850.3 982.4,851.9 988.0,853.0 993.6,854.4 999.2,856.2 1004.8,858.1 1010.4,860.1 1016.0,862.2 1021.6,864.3 1027.2,866.4 1032.8,868.5 1038.4,870.5 1044.0,872.4 1049.6,874.3 1055.2,876.0 1060.8,877.7 1066.4,879.2 1072.0,880.6" fill="none" stroke="#38bdf8" stroke-width="2" opacity="0.92"/>
<polyline points="70.0,855.0 75.6,855.3 81.2,855.7 86.8,856.2 92.4,856.7 98.0,857.1 103.6,857.5 109.2,857.7 114.8,872.6 120.4,879.4 126.0,882.3 131.6,883.4 137.2,883.4 142.8,882.9 148.4,882.1 154.0,881.1 159.6,879.9 165.2,878.5 170.8,877.1 176.4,875.5 182.0,873.9 187.6,872.2 193.2,870.4 198.7,868.6 204.3,866.8 209.9,864.9 215.5,863.1 221.1,861.2 226.7,859.3 232.3,857.8 237.9,856.6 243.5,855.1 249.1,853.3 254.7,851.4 260.3,849.3 265.9,847.2 271.5,845.1 277.1,843.1 282.7,841.0 288.3,839.0 293.9,837.1 299.5,835.3 305.1,833.5 310.7,831.9 316.3,830.4 321.9,842.3 327.5,849.1 333.1,853.1 338.7,855.3 344.3,856.5 349.9,857.2 355.5,857.5 361.1,857.7 366.7,840.1 372.3,831.9 377.9,828.4 383.5,827.1 389.1,826.9 394.7,827.4 400.3,828.2 405.9,829.2 411.5,830.5 417.1,831.8 422.7,833.3 428.3,834.9 433.9,836.5 439.5,838.2 445.1,840.0 450.6,841.8 456.2,843.7 461.8,845.5 467.4,847.4 473.0,849.3 478.6,851.2 484.2,852.5 489.8,853.8 495.4,855.3 501.0,857.1 506.6,859.1 512.2,861.2 517.8,863.3 523.4,865.4 529.0,867.5 534.6,869.5 540.2,871.5 545.8,873.4 551.4,875.2 557.0,876.9 562.6,878.5 568.2,879.9 573.8,869.4 579.4,863.1 585.0,859.4 590.6,857.2 596.2,856.0 601.8,855.3 607.4,854.9 613.0,854.7 618.6,871.0 624.2,878.5 629.8,881.7 635.4,882.9 641.0,882.9 646.6,882.4 652.2,881.6 657.8,880.5 663.4,879.2 669.0,877.8 674.6,876.3 680.2,874.7 685.8,873.0 691.4,871.3 696.9,869.5 702.5,867.7 708.1,865.9 713.7,864.0 719.3,862.1 724.9,860.2 730.5,858.4 736.1,857.2 741.7,855.9 747.3,854.2 752.9,852.4 758.5,850.4 764.1,848.3 769.7,846.2 775.3,844.1 780.9,842.0 786.5,840.0 792.1,838.0 797.7,836.2 803.3,834.4 808.9,832.7 814.5,831.1 820.1,829.7 825.7,838.6 831.3,844.3 836.9,848.1 842.5,850.4 848.1,851.9 853.7,852.7 859.3,853.2 864.9,853.6 870.5,838.2 876.1,831.2 881.7,828.2 887.3,827.2 892.9,827.2 898.5,827.8 904.1,828.7 909.7,829.9 915.3,831.2 920.9,832.6 926.5,834.1 932.1,835.7 937.7,837.4 943.3,839.1 948.8,840.9 954.4,842.7 960.0,844.6 965.6,846.5 971.2,848.4 976.8,850.3 982.4,851.9 988.0,853.0 993.6,854.4 999.2,856.2 1004.8,858.1 1010.4,860.1 1016.0,862.2 1021.6,864.3 1027.2,866.4 1032.8,868.5 1038.4,870.5 1044.0,872.4 1049.6,874.3 1055.2,876.0 1060.8,877.7 1066.4,879.2 1072.0,880.6" fill="none" stroke="#f97316" stroke-width="2" opacity="0.92"/>
<text x="780" y="28" fill="#38bdf8" font-family="Segoe UI, Arial" font-size="13">measured bridge final</text>
<text x="930" y="28" fill="#f97316" font-family="Segoe UI, Arial" font-size="13">stateful intended</text>
</svg>